<?xml version="1.0" encoding="utf-8"?>
<!-- Generator: Adobe Illustrator 24.1.2, SVG Export Plug-In . SVG Version: 6.00 Build 0)  -->
<svg version="1.1" id="Layer_1" xmlns="http://www.w3.org/2000/svg" xmlns:xlink="http://www.w3.org/1999/xlink" x="0px" y="0px"
	 viewBox="0 0 300 20.3" style="enable-background:new 0 0 300 20.3;" xml:space="preserve">
<style type="text/css">
	.st0{fill:#E2F9FF;}
</style>
<g>
	<path class="st0" d="M21.9,5.7C21.9,5.8,22,5.8,21.9,5.7c0.1,0,0.2,0.1,0.3,0C22.2,5.8,22.1,5.8,21.9,5.7c0.1,0.2,0.3,0.1,0.3,0.2
		c-0.1,0-0.2,0.1-0.3,0c0.1,0.2,0.3,0,0.5,0.2c0,0-0.1,0.1,0,0.1c0,0.1-0.1,0-0.1,0.1c0,0,0.1,0,0.2,0.1c-0.1,0,0,0.2-0.2,0.3
		c-0.1,0-0.3-0.1-0.3,0c0,0,0.3,0.1,0.4,0.1c0.2-0.1,0.3,0,0.5,0.1C22.9,7,22.8,7,22.7,7c0.1,0.1,0.1,0,0.3,0c0.1,0,0,0,0-0.1
		c0.1-0.1,0.2,0.1,0.2,0c0.1,0.1,0,0.2,0.1,0.2c-2.1,0-4.1,0-6.1,0.4V7.4c-0.1,0-0.2,0.2-0.3,0.1c0.2,0,0.2-0.1,0.2-0.2H17
		c0,0.1-0.1,0.1,0,0.1c-0.9,0.3-2,0.3-2.9,0.6c0.1,0.2,0.3,0.3,0.4,0.4c-0.1,0.8-0.2,1.2-0.3,1.9l0,0l0,0c0,0.1,0.1,0.1,0.2,0.1
		c0,0.1-0.1,0.1-0.2,0.1c0.1,0.2,0.3,0.1,0.4,0.1c0.2,0,0.5-0.1,0.6-0.1c0-0.1-0.2,0-0.3,0v-0.1c0.2-0.1,0.3,0.1,0.5-0.1
		c0.1,0,0.1,0,0.1,0.1c0.1-0.2,0.4-0.1,0.6-0.2c0,0.2-0.3,0.1-0.5,0.2c0.2,0.1,0.4,0,0.7,0c0,0.1,0,0.1,0.1,0.1c0-0.1,0-0.1-0.1-0.1
		c0.2-0.1,0.5-0.2,0.7-0.1c0.1,0,0,0,0-0.1c0.1,0,0.2,0,0.3,0c0,0.1-0.1,0.1-0.2,0.1c0.1,0.1,0.3-0.1,0.4,0c0,0.1,0,0.1,0,0.2
		c-0.2,0-0.2,0-0.3,0.1c0,0.1,0.1,0.1,0.2,0c0,0.1-0.1,0-0.1,0.1c0.1,0.1,0.3,0.1,0.4,0c0.1,0.2,0.3,0.2,0.3,0.5h0.1
		c0-0.1,0.2-0.1,0.3,0c0,0.1-0.1,0.1-0.1,0.2c-1.5,0.2-2.9,0.6-4,0.6c-0.1,0.3-0.2,0.4-0.3,0.6c-0.2,0,0-0.1-0.1-0.2
		c-0.1,0.2,0,0.2-0.1,0.4c0,0.1,0.2,0,0.1-0.1c0.1,0.1,0,0.2-0.1,0.2c0,0.1,0.1,0,0.1,0c0,0.1-0.1,0.1-0.1,0.1l0,0
		c-0.1,0.1-0.1-0.1-0.1-0.1s-0.1,0.1,0,0.2c-0.3,1-0.4,1.8-0.5,3.1c-0.3,0.3-0.6-0.2-0.7,0.2c-0.1-0.1-0.1-0.1-0.2,0l-0.1-0.1
		c-0.2,0.1-0.3-0.1-0.3,0c-0.1,0,0-0.2-0.1-0.1c-0.1-1.6,0.5-3.1,0.6-4.6c0.2-0.9,0.4-2.1,0.5-3.3c-1,0.1-1.9,0.3-2.8,0.2
		C10,8.2,9.8,8,9.8,7.8c0-0.1-0.1,0-0.2,0c0-0.1,0-0.2,0.2-0.1c0-0.1-0.1,0-0.1-0.1s0.2,0,0.2-0.1c-0.1,0-0.2-0.1-0.3-0.1
		c0.1-0.1,0.2,0,0.4,0c-0.1-0.1-0.2,0-0.3-0.1c0-0.1,0.1,0,0.1-0.1s-0.2,0-0.2-0.1c0.7-0.2,1.4-0.1,2-0.4c0.9,0,1.6-0.4,2.3-0.4
		c0.2,0,0.8-0.1,1.1-0.1c0.1,0-0.1-0.1,0.1-0.1c0,0,0,0,0,0.1c0,0,0-0.1,0.1-0.1c0.2,0.2,0.3-0.1,0.5,0c1-0.3,1.9-0.3,3-0.4
		c0,0,0,0,0,0.1c0.4,0,0.6,0,0.8,0c0,0-0.1,0-0.1,0.1h0.1c0.3-0.1,0.8-0.1,1.1-0.1c0.2,0.1,0.3,0,0.5-0.1c0.1,0,0.1,0.2,0.2,0.2
		s0-0.1,0.1-0.1s0.3,0.1,0.2,0.2C21.7,5.7,21.8,5.7,21.9,5.7C21.9,5.7,22,5.7,21.9,5.7L21.9,5.7z M13.5,13.8
		C13.5,13.8,13.4,13.8,13.5,13.8C13.4,13.8,13.4,13.8,13.5,13.8z M13.5,13.6c-0.1,0-0.1-0.1,0-0.1l0,0V13.6z M13.5,13.2
		C13.5,13.2,13.6,13.1,13.5,13.2C13.6,13.1,13.6,13.3,13.5,13.2z M13.6,13.4C13.6,13.4,13.6,13.6,13.6,13.4
		C13.5,13.5,13.5,13.4,13.6,13.4z M13.8,12.6L13.8,12.6L13.8,12.6C13.7,12.6,13.7,12.6,13.8,12.6L13.8,12.6z M14.5,10.5
		c0.1,0,0.2-0.1,0.3-0.1c0,0,0,0.1,0.1,0.1C14.8,10.5,14.7,10.5,14.5,10.5z M15.6,7.7C15.6,7.7,15.7,7.7,15.6,7.7
		C15.6,7.6,15.6,7.6,15.6,7.7z M15.6,11.6C15.7,11.6,15.7,11.6,15.6,11.6C15.7,11.6,15.6,11.6,15.6,11.6z M16.1,11.5L16.1,11.5
		C16.1,11.4,16.1,11.4,16.1,11.5z M16.3,10.2c-0.1,0-0.1,0-0.2,0C16.1,10.1,16.3,10.1,16.3,10.2z M16.2,7.6
		C16.3,7.6,16.3,7.6,16.2,7.6C16.3,7.5,16.2,7.5,16.2,7.6z M16.6,10.1c0.1,0,0.1,0.2,0.1,0c0.1,0.1-0.2,0.2-0.4,0.1
		C16.4,10.1,16.5,10.1,16.6,10.1z M16.5,7.5L16.5,7.5C16.4,7.5,16.4,7.5,16.5,7.5C16.4,7.5,16.4,7.5,16.5,7.5
		C16.4,7.5,16.4,7.5,16.5,7.5z M16.8,7.5C16.9,7.5,16.8,7.4,16.8,7.5C16.7,7.5,16.8,7.5,16.8,7.5z M16.8,10.6
		C16.9,10.6,16.9,10.6,16.8,10.6C16.9,10.5,16.8,10.5,16.8,10.6z M17.2,7.5C17.2,7.4,17.2,7.4,17.2,7.5C17.1,7.4,17.1,7.4,17.2,7.5
		C17.1,7.4,17.1,7.4,17.2,7.5C17.1,7.5,17.1,7.5,17.2,7.5z M17.2,10.4C17.3,10.4,17.3,10.4,17.2,10.4C17.3,10.4,17.2,10.4,17.2,10.4
		z M17.3,11C17.2,11,17.2,11,17.3,11L17.3,11c0.1,0,0.2,0,0.2,0v-0.1h0.1C17.4,10.8,17.4,11,17.3,11L17.3,11z M17.4,11.2L17.4,11.2
		L17.4,11.2z M17.8,11.2C17.9,11.2,17.9,11.2,17.8,11.2C17.9,11.2,17.8,11.2,17.8,11.2z M18,7.2L18,7.2C17.9,7.2,17.9,7.2,18,7.2
		C17.9,7.2,17.9,7.2,18,7.2C17.9,7.2,17.9,7.2,18,7.2z M18.1,7.1C18.1,7,18,7.2,18.1,7.1C18.1,7.3,18.3,7.1,18.1,7.1z M18.2,7.2
		C18.2,7.2,18.4,7.2,18.2,7.2C18.3,7.1,18.2,7.2,18.2,7.2z M18.3,11.2L18.3,11.2C18.2,11.3,18.2,11.3,18.3,11.2
		C18.2,11.2,18.2,11.2,18.3,11.2L18.3,11.2z M18.4,7C18.3,7,18.3,7.1,18.4,7C18.4,7.1,18.4,7.1,18.4,7z M18.6,7.1L18.6,7.1
		C18.6,7,18.5,7,18.6,7.1C18.5,7.1,18.5,7.1,18.6,7.1L18.6,7.1z M18.7,7.2C18.8,7.2,18.7,7.1,18.7,7.2C18.5,7.2,18.6,7.3,18.7,7.2z
		 M18.7,7.1L18.7,7.1C18.7,7,18.7,7,18.7,7.1z M18.9,7.1C18.9,7.1,19,7.1,18.9,7.1L18.9,7.1z M18.9,7.2c0.1,0,0.2,0.1,0.2,0
		C19.1,7.2,18.9,7.1,18.9,7.2z M19.2,7.1C19.2,7,19.1,7.1,19.2,7.1L19.2,7.1z M19.4,6.9C19.4,6.8,19.4,6.8,19.4,6.9
		C19.3,6.8,19.3,6.8,19.4,6.9C19.3,6.9,19.4,6.9,19.4,6.9z M19.4,5.7L19.4,5.7C19.4,5.6,19.4,5.6,19.4,5.7z M19.7,7.1
		c-0.1,0-0.1,0-0.2,0.1C19.6,7.1,19.8,7.2,19.7,7.1z M20.3,7C20.3,7,20.3,6.9,20.3,7c0,0-0.2-0.1-0.1,0C20.3,7,20.3,7,20.3,7z
		 M20.5,6.8c-0.1,0-0.1,0-0.1,0.1C20.5,6.9,20.5,6.9,20.5,6.8z M20.4,7.1h0.2C20.5,7.1,20.4,7,20.4,7.1z M21.3,6.7L21.3,6.7
		C21.2,6.7,21.2,6.7,21.3,6.7C21.2,6.6,21.1,6.7,21.3,6.7C21.2,6.8,21.3,6.8,21.3,6.7z M21.5,6.9c-0.1,0-0.2,0-0.1,0.1
		C21.4,7,21.5,7,21.5,6.9z M21.5,7C21.5,7,21.4,7,21.5,7C21.4,7,21.4,7,21.5,7C21.4,7,21.4,7,21.5,7z M21.5,5.8
		C21.5,5.8,21.6,5.8,21.5,5.8C21.5,5.7,21.5,5.7,21.5,5.8z M21.7,5.6C21.7,5.6,21.5,5.7,21.7,5.6C21.6,5.6,21.6,5.5,21.7,5.6z
		 M21.6,7c0.1,0,0.2,0.1,0.3,0C21.8,7,21.6,7,21.6,7z M21.8,6c0.1,0,0.1,0,0.1-0.1l0,0c0-0.1-0.1-0.1-0.2-0.1
		C21.8,5.9,21.8,5.8,21.8,6C21.9,6,21.8,6,21.8,6z M22,6.9C21.9,6.9,21.9,6.9,22,6.9c-0.1-0.1-0.2-0.1-0.2,0C21.9,7,21.9,7,22,6.9z
		 M22.2,7C22.2,6.9,22.2,6.9,22.2,7C22.2,6.9,22.2,6.9,22.2,7C22.1,6.9,22.1,7,22.2,7z M22.3,6.9c0,0.1,0,0.1,0.1,0.2
		C22.4,7,22.3,6.9,22.3,6.9z M22.3,5.9C22.3,6,22.3,6,22.3,5.9L22.3,5.9z M22.6,7C22.6,6.9,22.5,7,22.6,7C22.6,7,22.7,7,22.6,7z
		 M22.9,6.5C22.9,6.6,22.9,6.6,22.9,6.5C22.8,6.6,22.8,6.6,22.9,6.5C22.8,6.6,22.8,6.6,22.9,6.5C22.8,6.5,22.8,6.5,22.9,6.5z
		 M23.1,6.8c0,0.1-0.2,0.1-0.3,0C22.9,6.8,22.9,6.9,23.1,6.8z"/>
	<path class="st0" d="M31.5,11c-0.2,0.4-0.3,0.9-0.3,1.2c-0.1-0.1-0.2,0-0.1,0.1l0,0l0,0c0,0,0,0,0-0.1c0.1,0.1,0,0.5-0.1,0.6h0.1
		c0.1,0.4-0.1,0.8-0.1,1.1c-0.1,0,0,0,0,0.1l0,0c0,0,0,0,0,0.1s-0.1,0-0.1,0.1l0,0c0,0,0,0,0-0.1c-0.1,0.2,0,0.3,0,0.5l0,0
		c0.1,0,0-0.2,0.1-0.1c0,0.1,0,0.3,0,0.5h-0.1c-0.1,0,0.1-0.3-0.1-0.3c0,0.3-0.1,0.8-0.2,1.1c-0.1,0-0.1-0.1-0.1-0.1
		c-0.2,0.2-0.4,0.1-0.4,0.4c0,0,0,0,0-0.1l0,0c-0.1,0-0.1,0.1-0.2,0v-0.1c-0.1,0,0,0.1-0.1,0.1c-0.1-0.1-0.2-0.1-0.4-0.1
		c0.1-1.3,0.1-2.6,0.4-3.8c0.1-1,0.3-2.1,0.3-3.1c0-1.1,0.4-2.1,0.3-3c0.1-0.1,0.1-0.3,0.2-0.4c0.9,0.1,1.5,0.2,2.1,0.5
		c-0.1,0.1,0,0.3-0.1,0.3c0.1,0.3-0.1,0.9-0.3,1.3c-0.1,0,0.1-0.1,0-0.2c-0.2,0-0.2,0.2,0,0.2c-0.1,0.1-0.1,0.3-0.2,0.4
		c0,0.1,0.1,0,0.1,0c-0.2,0.1-0.3,0.1-0.3,0.1c0,0.1-0.1,0.2,0.1,0.2c-0.1,0.1,0.1,0.3-0.1,0.4C31.9,9,32,9,32,9.1
		c-0.4,0.1,0.1,0.5-0.3,0.7c0.1,0.3-0.2,0.6-0.1,0.8C31.4,10.8,31.4,10.9,31.5,11z M29.8,16.1L29.8,16.1L29.8,16.1L29.8,16.1z
		 M30.4,15.5C30.5,15.5,30.5,15.5,30.4,15.5C30.5,15.5,30.4,15.5,30.4,15.5z M30.8,13.8L30.8,13.8C30.7,13.8,30.8,14,30.8,13.8z
		 M30.8,14.6L30.8,14.6L30.8,14.6z M30.9,13.2C30.8,13.2,30.9,13.2,30.9,13.2c0-0.2,0-0.2,0-0.3l0,0c-0.1,0,0-0.2,0-0.3
		C30.8,12.8,30.9,13,30.9,13.2C30.8,13.1,30.9,13.1,30.9,13.2C30.9,13.2,30.8,13.2,30.9,13.2C30.9,13.2,30.9,13.4,30.9,13.2
		L30.9,13.2z M30.8,14C30.9,14,30.9,14,30.8,14C30.9,14,30.8,14,30.8,14z M30.8,14.5c0-0.1,0-0.1,0-0.2
		C30.9,14.3,30.9,14.5,30.8,14.5z M31,12.3C31,12.3,31,12.2,31,12.3C31,12.2,31,12.2,31,12.3C30.9,12.2,30.9,12.3,31,12.3L31,12.3z
		 M31.1,12.1V12v-0.1c0,0.1-0.1,0-0.1,0.1c0.1,0,0.1,0,0.1,0S31,12.1,31.1,12.1z M31,11.7C31.1,11.6,30.9,11.7,31,11.7
		C31,11.8,31,11.8,31,11.7C31.1,11.8,31.1,11.8,31,11.7c0.1,0,0.1,0.1,0.1,0.1c0-0.1,0-0.1,0-0.2C31.1,11.6,31.1,11.7,31,11.7
		C31.1,11.7,31.1,11.7,31,11.7z M31.1,11.5C31.1,11.5,31.2,11.5,31.1,11.5L31.1,11.5z M31.1,11.4C31.1,11.4,31.1,11.5,31.1,11.4
		C31.2,11.4,31.2,11.4,31.1,11.4z"/>
	<path class="st0" d="M48,5.5C48,5.6,48.1,5.6,48,5.5c0.7-0.1,1.6-0.2,2.3-0.2c-0.1,0.1,0,0.1,0.1,0.1l0,0c-0.1,0,0,0,0,0
		s0.1,0,0.1,0.1c0.1,0,0.1-0.1,0.2-0.2c0.2,0.1,0.3-0.1,0.5,0c0,0.1,0.1,0,0.2,0c0.1,0,0,0,0-0.1c0.3,0,0.6,0,0.9,0c0,0,0,0,0,0.1
		c0,0,0.1,0,0.1-0.1c0.2,0,0.6,0,0.6,0.1c-0.1,0,0,0,0,0l0,0l0,0l0,0c0.1-0.2,0.3,0.2,0.3,0c0.1,0,0,0.2,0.1,0.1
		c0-0.1,0.3,0.1,0.3,0.1c-0.1,0,0,0.1,0,0c0.1-0.1,0,0,0.1,0c0,0,0,0-0.1,0c0,0.1,0.2,0,0.1,0.1l0,0l0,0c-0.1,0-0.1,0.1-0.2,0
		c0,0.1,0,0.1,0.1,0.1c0,0.1-0.1,0.1-0.2,0.1c0,0.1,0.1,0,0.2,0h-0.1c0,0.1,0.1,0,0.2,0.1l0,0c0,0,0,0,0,0.1V5.9
		c-0.1,0-0.2,0-0.3,0.1c0.1,0.1,0.2,0,0.3,0.1l-0.1,0.1c0,0.1,0.2-0.1,0.2,0l0,0c-0.1,0-0.2,0.1-0.3,0.1s0,0.1,0,0.1
		c-0.1,0.1-0.3-0.1-0.3,0c-0.1,0-0.1,0.1-0.2,0c0,0,0,0,0,0.1c-0.3,0-0.3,0.2-0.6,0.2V6.6c-0.1,0.1,0,0-0.1,0c0,0.2,0,0,0.1,0.1
		c-0.1,0.2,0.1,0,0.1,0.1c-0.1,0-0.2,0-0.3,0c0,0,0,0,0-0.1c-0.1,0-0.1,0-0.1,0c-0.1,0-0.1-0.1-0.3-0.1c0.2,0.1,0,0.1,0.1,0.1
		c-0.9,0.4-1.9,0.5-2.9,0.6c0,0.3,0.2,0.7,0.1,1.1C49,8.6,49,8.9,49,9.1c-0.2,0-0.2,0.4-0.1,0.5c0,0.1-0.1,0.1-0.1,0.1
		s-0.1,0.2,0,0.2c0,0.1-0.2,0.2,0,0.2c-0.1,0.4-0.3,0.8-0.3,1.2h-0.1c0.1,0.1,0,0.2-0.1,0.2c0.1,0.2-0.1,0.3,0,0.5
		c-0.3,0.1-0.1,0.5-0.4,0.6c0.1,0.1,0.1,0.1,0.1,0.2c-0.1,0,0,0,0,0c0.1,0,0-0.1,0.1-0.1c0,0.1-0.1,0.2-0.1,0.3c-0.1,0,0-0.1,0-0.1
		h-0.1c-0.1,0,0,0.1,0,0.2c-0.1,0-0.2,0-0.2,0c0,0.1,0.1,0.1,0.1,0.2c-0.1,0-0.1,0.3-0.2,0.1c-0.1,0.5-0.4,0.8-0.5,1.3
		c0,0,0-0.5,0.2-0.5c0,0,0,0,0,0.1c0,0,0,0,0-0.1l0.1-0.1c0.1,0.1,0,0.2-0.1,0.3v-0.1c-0.1,0-0.1,0.1-0.1,0.1c0.2,0.1,0,0.3-0.1,0.4
		c0,0-0.2-0.1-0.1,0l0,0v-0.1c-0.1,0-0.1,0.2,0,0.1c0,0,0,0,0,0.1s0,0,0.1,0c0,0.1,0,0.2,0,0.3c-0.6,0.6-1,1.6-2.2,1.4
		c-0.1,0,0,0.1-0.1,0.1c-0.4,0-1-0.1-1.4-0.1c-0.5-0.1-0.8-0.5-0.9-1.1c0-2,0.6-3.8,1.1-5.6c0.1-0.2,0.2-0.5,0.3-0.7
		c0.8,0.1,1.3,0.6,1.8,1c0,0.2-0.1,0.1-0.1,0.3c-0.1,0-0.1-0.1-0.2,0c-0.5,0.5-0.6,1.2-0.7,2c-0.2,0-0.1,0.1-0.1,0.2
		c-0.2,0.9-0.4,1.8-0.2,2.6c0.6-0.3,0.7-1,1.1-1.5c0.4-1,0.9-1.9,1.2-3c0-0.1,0-0.1,0-0.2c0.1-0.1,0.1-0.3,0.2-0.4
		c0.1-0.9,0.3-2,0.2-2.9c-0.6-0.1-1.2,0-2,0c-0.1,0-0.2,0-0.2-0.1c0,0,0,0.1-0.1,0.1c-0.4,0-1,0-1.2-0.1c-0.2-0.3-0.3-0.5-0.4-0.8
		c0,0,0-0.1,0.1-0.1c-0.2-0.1-0.1-0.5-0.2-0.5c0-0.1,0.1-0.1,0.1-0.1c-0.2,0,0-0.2-0.2-0.2c0.3-0.1,0.7-0.2,1.1-0.2
		c0,0.1,0.2,0.2,0.3,0.4c0.2-0.1,0.6,0,0.8,0V5.6C46.4,5.5,47.2,5.5,48,5.5L48,5.5z M44.1,14L44.1,14C44.1,14.1,44,13.9,44.1,14
		C44.1,14,44,14.1,44.1,14L44.1,14z M45.7,5.7C45.7,5.7,45.8,5.7,45.7,5.7C45.7,5.6,45.7,5.6,45.7,5.7z M47,15
		C47,14.9,47,14.9,47,15C47,14.9,47.1,15,47,15z M47.5,5.6C47.4,5.6,47.4,5.6,47.5,5.6C47.4,5.7,47.5,5.7,47.5,5.6z M48.3,11.2
		c0,0.1-0.1,0.1-0.1,0.2C48.4,11.5,48.4,11.2,48.3,11.2z M48.5,10.6C48.5,10.5,48.5,10.5,48.5,10.6C48.5,10.5,48.5,10.6,48.5,10.6
		L48.5,10.6z M48.7,9.9C48.7,9.9,48.7,9.8,48.7,9.9C48.6,9.9,48.6,9.9,48.7,9.9C48.6,9.9,48.6,9.8,48.7,9.9
		C48.6,9.9,48.6,9.9,48.7,9.9C48.6,9.9,48.6,9.9,48.7,9.9z M48.6,5.6C48.6,5.5,48.6,5.6,48.6,5.6L48.6,5.6z M50.9,7L50.9,7
		C50.9,6.9,50.9,6.9,50.9,7z M51.3,5.4L51.3,5.4C51.2,5.4,51.3,5.4,51.3,5.4z M51.5,6.9L51.5,6.9C51.4,6.9,51.4,6.9,51.5,6.9
		C51.4,6.9,51.4,6.9,51.5,6.9C51.3,6.9,51.4,6.9,51.5,6.9C51.5,7,51.6,6.8,51.5,6.9z M51.5,7h0.2H51.5z M51.8,6.9
		C51.9,6.8,51.7,6.8,51.8,6.9C51.7,6.9,51.8,6.9,51.8,6.9z M52,6.9C52.1,6.9,52.1,6.9,52,6.9C52.1,6.8,52,6.8,52,6.9
		C51.9,6.8,52,7,52,6.9z M52.4,5.4C52.3,5.4,52.3,5.4,52.4,5.4C52.3,5.4,52.4,5.4,52.4,5.4z M52.5,6.9C52.5,7,52.5,7,52.5,6.9
		L52.5,6.9z M52.8,6.7C52.7,6.6,52.7,6.7,52.8,6.7L52.8,6.7z M52.8,6.6L52.8,6.6C52.8,6.5,52.8,6.5,52.8,6.6z M53,6.6
		c0,0.1,0.1,0,0.2,0C53.1,6.6,53,6.5,53,6.6z M53.1,6.3C53.1,6.3,53.2,6.3,53.1,6.3C53.1,6.2,53.1,6.2,53.1,6.3z M53.2,6.3
		C53.2,6.3,53.3,6.3,53.2,6.3C53.2,6.2,53.2,6.2,53.2,6.3z M53.6,5.6C53.6,5.6,53.5,5.6,53.6,5.6C53.5,5.6,53.5,5.6,53.6,5.6z
		 M53.8,5.7C53.9,5.7,53.9,5.7,53.8,5.7C53.8,5.8,53.8,5.7,53.8,5.7L53.8,5.7z M53.8,5.9L53.8,5.9L53.8,5.9z M53.9,5.9L53.9,5.9
		L53.9,5.9z M53.9,6.2L53.9,6.2L53.9,6.2z"/>
	<path class="st0" d="M62.4,11c-0.2,0.4-0.3,0.8-0.3,1.2c-0.1-0.1-0.2,0-0.1,0.1l0,0l0,0c0,0,0,0,0-0.1c0.1,0.1,0,0.5-0.1,0.6H62
		c0.1,0.4-0.1,0.8-0.1,1.1c-0.1,0,0,0,0,0.1l0,0c0,0,0,0,0,0.1s-0.1,0-0.1,0.1l0,0c0,0,0,0,0-0.1c-0.1,0.2,0,0.3,0,0.5l0,0
		c0.1,0,0-0.2,0.1-0.1c0,0.1,0,0.3,0,0.5h-0.1c-0.1,0,0.1-0.3-0.1-0.3c0,0.3-0.1,0.8-0.2,1.1c-0.1,0-0.1-0.1-0.1-0.1
		c-0.2,0.2-0.4,0.1-0.4,0.4c0,0,0,0,0-0.1l0,0c-0.1,0-0.1,0.1-0.2,0v-0.1c-0.1,0,0,0.1-0.1,0.1c-0.1-0.1-0.2-0.1-0.4-0.1
		c0.1-1.3,0.1-2.6,0.4-3.8C60.8,11.1,61,10,61,9c0-1.1,0.4-2.1,0.3-3c0.1-0.1,0.1-0.3,0.2-0.4c0.9,0.1,1.5,0.2,2.1,0.5
		c-0.1,0.1,0,0.3-0.1,0.3c0.1,0.3-0.1,0.9-0.3,1.3c-0.1,0,0.1-0.1,0-0.2c-0.2,0-0.2,0.2,0,0.2C63.1,7.8,63.1,8,63,8.1
		c0,0.1,0.1,0,0.1,0c-0.2,0.1-0.2,0.1-0.3,0.1c0,0.1-0.1,0.2,0.1,0.2c-0.1,0.1,0.1,0.3-0.1,0.4c0,0.2,0.1,0.2,0.1,0.3
		c-0.4,0.1,0.1,0.5-0.3,0.7c0.1,0.3-0.2,0.6-0.1,0.8C62.3,10.8,62.3,10.9,62.4,11z M60.7,16.1L60.7,16.1L60.7,16.1
		C60.8,16.1,60.8,16.1,60.7,16.1z M61.4,15.5C61.4,15.5,61.5,15.5,61.4,15.5L61.4,15.5z M61.7,13.8C61.8,13.8,61.7,13.8,61.7,13.8
		S61.8,14,61.7,13.8z M61.7,14.6L61.7,14.6L61.7,14.6z M61.8,13.2C61.8,13.2,61.9,13.2,61.8,13.2c0-0.2,0-0.2,0-0.3l0,0
		c-0.1,0,0-0.2,0-0.3C61.7,12.8,61.9,13,61.8,13.2C61.8,13.1,61.8,13.1,61.8,13.2C61.8,13.2,61.7,13.2,61.8,13.2
		C61.8,13.2,61.8,13.4,61.8,13.2C61.9,13.2,61.8,13.2,61.8,13.2z M61.8,14L61.8,14L61.8,14z M61.8,14.5c0-0.1,0-0.1,0-0.2V14.5z
		 M61.9,12.3C61.9,12.3,61.9,12.2,61.9,12.3C61.9,12.2,61.9,12.2,61.9,12.3C61.9,12.2,61.9,12.3,61.9,12.3L61.9,12.3z M62,12.1V12
		v-0.1c0,0.1-0.1,0-0.1,0.1c0.1,0,0.1,0,0.1,0V12.1z M62,11.7C62,11.6,61.9,11.7,62,11.7C61.9,11.8,61.9,11.8,62,11.7
		C62,11.8,62,11.8,62,11.7c0.1,0,0.1,0.1,0.1,0.1C62.1,11.7,62.1,11.7,62,11.7C62,11.6,62,11.7,62,11.7L62,11.7z M62,11.5
		C62.1,11.5,62.1,11.5,62,11.5C62.1,11.5,62,11.5,62,11.5z M62.1,11.4C62.1,11.4,62.1,11.5,62.1,11.4C62.1,11.4,62.2,11.4,62.1,11.4
		z"/>
	<path class="st0" d="M101.3,5C101.4,5,101.3,5.1,101.3,5c0.2,0.2,0.1,0,0.2,0c0,0.1,0,0.2,0.1,0.1c0,0.1-0.1,0.2,0,0.2
		c0,0.1,0.1,0.1,0.2,0.1c0,0.4,0,0.7,0,1l0,0c0,0.6-0.1,1.3-0.2,1.8c-0.1,0-0.1,0-0.1,0v0.1c-0.1,0.2,0,0.3-0.1,0.5l0,0
		c0,0.4-0.3,0.8-0.2,1.2c0,0.1-0.1-0.1-0.1,0.1l0,0c0,0.1,0,0,0,0s0,0,0.1,0c0,0.3-0.1,0.4-0.1,0.8c-0.1,0.1-0.2,0.1-0.2,0.1
		c-0.1,0,0-0.1-0.1-0.1c0.1-0.2,0.2-0.4,0.1-0.7c-0.1,0-0.1,0.1-0.1,0.1c0,0.2-0.2,0.2-0.1,0.4c-0.1,0-0.1,0.1-0.1,0.2
		c0,0-0.1,0.1-0.2,0c0,0.1,0,0.1,0,0.1c0,0.1-0.2,0-0.2,0.1s0.2,0.1,0.2,0.2c-0.1,0.1-0.1-0.2-0.1,0c0,0,0,0-0.1,0
		c0,0.1,0.1,0.1,0.1,0c0,0.1,0.1,0.1,0.2,0.1v0.1c-0.1-0.1-0.1,0.1,0,0c0,0.2-0.1,0.2-0.1,0.2v-0.1c-0.1,0-0.1,0.1-0.1,0
		c-0.1,0.2-0.2,0.2-0.2,0.4c0.1,0.1,0.1,0,0.2-0.1c0.1,0,0,0.2,0.1,0.1c0.1,0.1-0.1,0.2-0.1,0.2c-0.1,0,0-0.1,0-0.1
		c-0.2,0-0.3,0.3-0.4,0.5c-0.1,0.1-0.1,0.2-0.1,0.3c0.1,0,0.1-0.1,0.1-0.3c0.1,0.2-0.1,0.4-0.1,0.6c-0.1,0,0-0.1,0-0.2
		c-0.1,0-0.1,0.2-0.1,0.2c-0.1,0-0.1,0.1-0.1,0.1l0.1-0.1c0,0.2,0,0.5-0.2,0.6c-0.1,0.2-0.1,0.7-0.4,0.8c0,0.3-0.2,0.4-0.3,0.6
		c0,0.1,0.2,0,0.1,0.1c-0.1-0.1-0.1,0-0.1,0.1c0,0,0,0,0-0.1c0,0.1-0.1,0.1-0.1,0.2c0.2,0-0.1,0.3,0.1,0.2c-0.4,0.4-0.9,0.4-1.5,0.3
		c-0.2,0-0.2,0-0.5-0.1c0.1-0.1,0-0.1-0.1-0.1c0,0,0,0-0.1,0h-0.1c-0.4-0.1-0.7-0.4-0.8-0.9c-0.3-1.4,0-3.1-0.1-4.3
		c-0.2,0.2-0.3,0.5-0.4,0.8c0.1,0.1,0.1,0.1,0.1,0.2l-0.1-0.1c-0.1,0-0.1,0.1-0.1,0.1c0,0.1,0.1,0,0.1,0c0,0.1-0.1,0.1-0.2,0.1
		c-0.3,0.5-0.5,1.1-0.8,1.7h-0.1c0.1,0.1-0.1,0.1,0.1,0.1c-0.1,0.1-0.2,0.2-0.2,0.4c-0.1,0.2-0.2,0.3-0.3,0.5
		c-0.2-0.1-0.1,0.3-0.3,0.2c0-0.1-0.1-0.1,0-0.2c0-0.1,0.1-0.4,0.2-0.4c0-0.1,0-0.2,0.1-0.1c-0.1-0.2,0.1-0.4,0.2-0.4
		c-0.1-0.2,0.2-0.3,0.1-0.5c0.2,0,0.2-0.2,0.2-0.5c0,0.1,0.1,0.1,0.1,0s0-0.2,0-0.4c0.1,0,0.1-0.2,0.3-0.2c0-0.1,0-0.1,0-0.2
		c0.1,0.1,0.1-0.1,0.1-0.2c0,0,0.1,0,0.1-0.1c0,0-0.1,0-0.1,0.1c-0.2,0.1-0.1,0.4-0.4,0.3c0,0.1,0.1,0,0.1,0.1
		c-0.1,0.3-0.3,0.6-0.4,0.8c-0.1,0,0-0.1-0.1-0.1c0,0,0,0,0.1,0c0,0,0,0-0.1,0l0,0c0,0,0,0-0.1,0c0,0,0,0,0.1,0c0,0.1,0,0.1,0,0.2
		c-0.1,0-0.1,0-0.1,0c0,0.1,0.1,0,0.1,0H94c0,0.1-0.1,0.1-0.1,0.1h-0.1h-0.1c0,0.1,0.1,0.1,0.1,0c0,0,0,0,0.1,0
		c0,0.2-0.1,0.3-0.2,0.4c0,0,0,0,0-0.1v-0.1c-0.1,0,0,0.1,0,0.1v0.1v0.1c0,0-0.1,0-0.1-0.1c-0.1,0.1-0.1,0.2,0,0.2
		c-0.1,0.1-0.1,0.1-0.2,0.1c0,0.1,0,0.1,0,0.1c0,0.1,0,0.1,0.1,0c0,0.2-0.1,0.1-0.1,0.2c0,0,0,0,0-0.1c-0.1,0.1,0,0.2,0,0.3
		c-0.1,0,0,0,0-0.1c-0.1,0.1-0.3,0.4-0.2,0.5c-0.1,0-0.2,0.1-0.2,0.2c-0.1,0-0.1,0-0.1,0.1c0.1,0,0.1,0,0.1-0.1l0.1-0.1
		c0.1,0.2-0.2,0.4,0,0.5c0,0.1,0,0.1-0.1,0.1c0,0.1,0.1,0.1,0.1,0.1c0,0.1,0,0.1,0,0.1C93,15.5,93,15.5,93,15.6c-0.1,0-0.2,0-0.2,0
		s0.1,0,0.1-0.1c-0.1,0-0.3,0-0.5,0.1c-0.3-0.1-0.9,0.1-1-0.2c-1,0-1-1.4-1.1-2.4c0.1-0.2,0.1-0.8,0.1-1c0.1-0.2,0-0.4,0-0.6
		c0-0.2,0.1-0.4,0.1-0.6c0-0.2,0.1-0.7,0.1-0.7c0.3-1.4,0.6-2.9,1-4.2c0-0.1-0.1,0-0.1-0.2c0.2-0.2,0.4-0.4,0.7-0.3
		c-0.1,0.5,0,0.7,0.1,0.8c0.1,0,0.1,0,0.2,0c0.2,0.3,0.6,0.5,0.6,0.8H93c0,0.4-0.1,0.5-0.1,0.8c-0.1,0.1-0.2,0.1-0.2,0.1
		c0,0.1,0,0.1,0,0.1c0.2-0.1,0.1,0.4,0,0.5l0,0c0.1,0.2-0.1,0.3-0.1,0.5c-0.2,0.1-0.1,0.4-0.2,0.5c-0.1,0,0-0.1,0-0.1
		c-0.1,0.3-0.1,0.3-0.2,0.6c0.1,0,0.1-0.1,0.2,0c-0.2,0.1-0.3,0.4-0.2,0.4c-0.1,0.1-0.1,0.3-0.1,0.6C92,11,92,11.1,92,11
		c0.1,0.2,0.1,0.4,0,0.5c0,0,0-0.1-0.1-0.1c0,0.1,0,0.1,0.1,0.1c0,0.1,0,0.1,0.1,0.1c-0.2,0.3,0,0.7-0.2,0.8c0.1,0.3,0,0.4,0,0.7
		c-0.1,0-0.1,0-0.2,0c0,0.1,0.1,0.1,0.2,0.1c0,0.3,0,0.3,0,0.5c-0.1,0.1,0,0.3,0,0.4c0.1-0.1,0.1-0.2,0.2-0.3c1-2.4,2.1-4.8,3.6-6.7
		c0.1,0,0.2-0.1,0.3-0.2c0.2,0,0.2,0,0.3-0.1c0.1,0.1,0,0.3,0.3,0.2c0,0.1,0,0.1,0,0.1c0.2,0,0.2,0.2,0.4,0.1c0,0.2,0.1,0.2,0.3,0.2
		c-0.2-0.1-0.2,0.2,0.1,0.2c0,0.1-0.1,0-0.1,0.1c0.1,0.1,0.1,0.1,0.3,0.1c0.1,0.2,0.1,0.6,0,0.7c-0.1,0,0-0.1-0.1-0.1
		c-0.2,0.4-0.2,1.1-0.2,1.6c-0.1,0-0.1-0.1,0-0.2h-0.1c-0.1,0-0.1,0.1-0.1,0.1C97.3,10,97,10,97,10c0,0.2,0.1,0.4-0.1,0.4
		c0.1,0.2,0.1,0.6-0.1,0.7c0,0.1,0,0.2,0.1,0.2c-0.2,1.2-0.2,1.8,0,2.9c0.1,0,0-0.2,0.1-0.2c0.1,0.2,0,0.7,0.1,0.7s0,0.1,0,0.1
		c0,0.1,0,0.1,0,0.1h0.1c0.7-0.6,0.9-1.6,1.3-2.4c0.1-0.6,0.5-1.2,0.6-2c0,0,0,0,0.1,0c0.2-1,0.6-2,0.6-2.9c0,0,0-0.1,0.1-0.1
		c0.1-0.8,0.1-1.5,0.2-2.4c0.1-0.1,0.1-0.4,0.2-0.6c0,0,0,0,0,0.1c0.1,0,0-0.1,0-0.2c0.1,0.1,0.1,0,0.1-0.1c0.2,0,0.3,0.3,0.5,0.2
		c0,0.2,0,0.2,0,0.5c0,0,0,0,0-0.1V5c0,0,0,0,0.1,0c0,0,0-0.1,0-0.2s0,0.1,0,0.2c0.1,0,0.1-0.1,0.1-0.2C101.2,4.9,101.3,5,101.3,5
		S101.2,5,101.3,5C101.2,5,101.3,5.1,101.3,5z M91.5,11.8C91.5,11.8,91.6,11.8,91.5,11.8L91.5,11.8z M91.5,13.7
		C91.6,13.7,91.6,13.7,91.5,13.7C91.6,13.7,91.5,13.7,91.5,13.7z M91.7,11.8L91.7,11.8C91.6,11.9,91.7,11.9,91.7,11.8z M91.7,11.2
		C91.7,11.3,91.8,11.4,91.7,11.2C91.8,11.3,91.8,11.2,91.7,11.2z M91.8,10.6C91.9,10.6,91.9,10.6,91.8,10.6
		C91.9,10.6,91.8,10.6,91.8,10.6z M91.8,10.7C91.9,10.7,91.9,10.7,91.8,10.7C91.9,10.7,91.8,10.7,91.8,10.7z M92.3,10.2
		c0,0.1,0,0.2-0.1,0.2C92.1,10.3,92.3,10.3,92.3,10.2C92.2,10.1,92.3,10.2,92.3,10.2z M92.5,15.9L92.5,15.9L92.5,15.9z M92.7,14.3
		c0,0.1-0.2,0.1,0,0.2C92.7,14.4,92.8,14.3,92.7,14.3z M92.9,13.3C92.8,13.3,92.8,13.3,92.9,13.3c-0.1,0.1-0.3,0.1-0.1,0.1
		C92.7,13.3,92.9,13.4,92.9,13.3z M92.7,13.8C92.8,13.8,92.7,13.7,92.7,13.8L92.7,13.8z M92.8,14.1L92.8,14.1L92.8,14.1z M92.8,13.7
		c0.1,0.1,0.1-0.1,0.1-0.1C92.9,13.6,92.8,13.6,92.8,13.7C92.8,13.5,92.8,13.6,92.8,13.7C92.8,13.6,92.8,13.6,92.8,13.7z M92.9,13.2
		C92.9,13.2,92.9,13.1,92.9,13.2c-0.1,0-0.1,0.1-0.1,0.1C92.9,13.2,92.9,13.2,92.9,13.2z M92.9,14.6c0,0.1-0.1,0.1-0.1,0.1
		C92.9,14.8,92.9,14.6,92.9,14.6z M92.9,15.1L92.9,15.1C92.8,15.1,92.8,15.1,92.9,15.1C92.8,15.1,92.8,15.1,92.9,15.1
		C92.8,15.1,92.8,15.1,92.9,15.1z M92.9,11.9C92.9,11.9,92.9,12,92.9,11.9L92.9,11.9z M92.9,13.3c0,0.1-0.1,0.2,0,0.2
		S93,13.4,92.9,13.3C93.1,13.4,92.9,13.2,92.9,13.3C93,13.3,93,13.3,92.9,13.3L92.9,13.3z M93,15.7C93,15.7,92.9,15.7,93,15.7
		L93,15.7z M93,15.6C93,15.7,93,15.7,93,15.6C93,15.7,93,15.6,93,15.6z M93,15.4c0-0.3,0.3-0.4,0.3-0.7c0,0,0,0,0.1,0
		C93.2,15.1,93.2,15.3,93,15.4z M93.1,13.3c0,0.1-0.1,0.1,0,0.1C93.1,13.5,93.2,13.3,93.1,13.3z M93.2,12.9c0-0.1-0.1-0.2-0.1-0.1
		C93.2,12.8,93.1,12.9,93.2,12.9C93.2,12.9,93.2,12.8,93.2,12.9z M93.1,14.5C93.1,14.5,93.2,14.5,93.1,14.5
		C93.2,14.5,93.2,14.6,93.1,14.5z M93.3,12.8L93.3,12.8L93.3,12.8z M93.3,13.9L93.3,13.9C93.3,14,93.3,14,93.3,13.9
		C93.3,14,93.3,14,93.3,13.9C93.3,14,93.3,14,93.3,13.9z M93.3,12.5c0.1,0,0.1-0.1,0-0.1C93.3,12.4,93.3,12.4,93.3,12.5
		C93.2,12.5,93.3,12.5,93.3,12.5z M93.5,11.8C93.5,11.8,93.4,11.8,93.5,11.8l-0.1,0.1C93.5,12,93.5,11.9,93.5,11.8z M93.6,11.9
		L93.6,11.9L93.6,11.9z M93.7,11.6L93.7,11.6L93.7,11.6L93.7,11.6L93.7,11.6z M93.8,12.7h-0.2C93.7,12.8,93.8,12.8,93.8,12.7z
		 M93.8,11.2L93.8,11.2C93.7,11.1,93.7,11.4,93.8,11.2C93.8,11.3,93.8,11.3,93.8,11.2z M93.7,11.4C93.8,11.4,93.8,11.4,93.7,11.4
		C93.8,11.4,93.8,11.4,93.7,11.4C93.8,11.4,93.8,11.4,93.7,11.4L93.7,11.4z M93.8,12.8L93.8,12.8C93.8,12.9,93.8,12.9,93.8,12.8
		L93.8,12.8C93.8,12.9,93.8,12.9,93.8,12.8z M93.9,11.1L93.9,11.1C94,11,93.9,11.1,93.9,11.1C94,11,93.9,10.9,93.9,11.1
		C93.8,11,93.8,11.1,93.9,11.1z M93.9,11.2C94,11.2,93.9,11.1,93.9,11.2C93.8,11.3,93.9,11.3,93.9,11.2z M94,10.8
		C94.1,10.8,94,10.7,94,10.8C93.9,10.8,94,10.9,94,10.8z M94.1,10.6C94.2,10.6,94.1,10.5,94.1,10.6L94.1,10.6z M94.4,11.1
		C94.4,11.2,94.3,11.2,94.4,11.1C94.4,11.3,94.5,11.2,94.4,11.1z M94.4,11.7C94.4,11.7,94.4,11.6,94.4,11.7
		C94.4,11.6,94.4,11.6,94.4,11.7C94.3,11.6,94.3,11.7,94.4,11.7L94.4,11.7z M94.7,10.8c-0.1,0-0.1,0.1-0.1,0.1
		C94.6,10.9,94.7,10.9,94.7,10.8z M94.7,11.3c0,0.1-0.1,0.1-0.1,0.2C94.7,11.5,94.8,11.3,94.7,11.3z M94.8,11.1L94.8,11.1
		c-0.1,0.1-0.1,0.2-0.2,0.2C94.8,11.3,94.9,11.2,94.8,11.1z M94.9,11.9C95,11.9,94.7,12.2,94.9,11.9L94.9,11.9z M94.8,10.5
		C94.9,10.5,94.9,10.5,94.8,10.5C94.9,10.5,94.8,10.5,94.8,10.5z M94.9,10.9C95,10.9,95,10.9,94.9,10.9C95,10.9,94.9,10.9,94.9,10.9
		z M95.1,10.7c-0.1,0-0.1,0-0.1,0.1C95,10.8,95.1,10.8,95.1,10.7z M95.2,10.3L95.2,10.3C95.3,10.3,95.3,10.3,95.2,10.3
		C95.3,10.2,95.3,10.2,95.2,10.3C95.2,10.2,95.2,10.2,95.2,10.3z M96.3,12C96.2,12,96.2,12,96.3,12C96.2,12,96.2,12,96.3,12
		C96.2,12,96.3,12.1,96.3,12z M96.2,12.2C96.3,12.2,96.3,12.2,96.2,12.2C96.4,12.1,96.2,12.1,96.2,12.2z M96.2,12.6
		C96.2,12.6,96.3,12.6,96.2,12.6L96.2,12.6z M96.2,13.8C96.2,13.8,96.3,13.8,96.2,13.8L96.2,13.8z M96.3,13.9
		C96.4,13.9,96.4,13.9,96.3,13.9C96.4,13.9,96.3,13.9,96.3,13.9z M96.4,15.8C96.4,15.9,96.4,15.9,96.4,15.8
		C96.4,15.9,96.4,15.9,96.4,15.8L96.4,15.8z M96.4,12.6C96.3,12.7,96.4,12.7,96.4,12.6L96.4,12.6C96.5,12.6,96.4,12.5,96.4,12.6
		L96.4,12.6z M96.4,12.3C96.4,12.4,96.4,12.4,96.4,12.3C96.5,12.4,96.5,12.3,96.4,12.3z M96.5,15.9C96.5,15.9,96.4,15.9,96.5,15.9
		L96.5,15.9z M96.5,10.9L96.5,10.9L96.5,10.9z M96.5,11.5L96.5,11.5L96.5,11.5z M96.6,10.7C96.6,10.7,96.6,10.6,96.6,10.7
		C96.5,10.6,96.5,10.6,96.6,10.7C96.5,10.6,96.5,10.7,96.6,10.7C96.5,10.7,96.5,10.7,96.6,10.7z M96.6,14L96.6,14
		C96.5,14,96.5,14,96.6,14C96.5,14,96.5,14,96.6,14C96.5,14,96.5,14,96.6,14z M96.5,13.4C96.6,13.4,96.6,13.4,96.5,13.4
		C96.6,13.4,96.5,13.4,96.5,13.4z M96.6,11.1L96.6,11.1C96.6,11.2,96.6,11.1,96.6,11.1C96.7,11.1,96.6,11,96.6,11.1L96.6,11.1z
		 M96.9,14.4C96.8,14.4,96.8,14.4,96.9,14.4C96.9,14.5,96.9,14.4,96.9,14.4z M96.9,13.6c0,0.1,0.2,0.4-0.1,0.3
		c0.1-0.3,0-0.4,0.1-0.9C96.9,13.1,96.9,13.5,96.9,13.6z M96.9,14.3C96.9,14.2,96.7,14.3,96.9,14.3C96.9,14.4,96.9,14.3,96.9,14.3z
		 M96.9,14.6L96.9,14.6L96.9,14.6C96.8,14.6,96.8,14.6,96.9,14.6L96.9,14.6z M96.9,13c-0.1-0.1-0.1-0.2,0-0.3
		C97,12.8,96.9,12.9,96.9,13z M96.9,12.1c-0.1,0-0.1-0.1-0.1-0.2C97,11.9,97,12.1,96.9,12.1z M96.9,12.5c0-0.1,0-0.1,0-0.2
		C97,12.2,97,12.5,96.9,12.5z M96.9,12.6L96.9,12.6C96.9,12.5,96.9,12.6,96.9,12.6z M96.9,9.7C97,9.8,97,9.6,96.9,9.7
		C97,9.7,96.9,9.7,96.9,9.7C96.8,9.8,97,9.9,96.9,9.7z M96.9,11.5c0.1-0.1,0-0.3,0-0.4C97,11.1,97,11.5,96.9,11.5z M97,11.7
		C96.9,11.7,96.9,11.7,97,11.7C96.9,11.7,96.9,11.7,97,11.7C97,11.6,97,11.7,97,11.7z M96.9,10.7c0.1,0,0.1,0.3,0,0.3
		S97,10.8,96.9,10.7z M97.1,10.2c-0.2,0.1,0,0.3-0.1,0.5c-0.1-0.1,0-0.6,0-0.7C97.1,10,97,10.1,97.1,10.2z M97,9.3
		C97,9.3,97,9.2,97,9.3L97,9.3L97,9.3z M97,9.1C97,9.2,97,9.1,97,9.1S97,9,97,9.1C97.1,9,97,8.9,97,9.1C97,9,97,9.1,97,9.1z
		 M97.2,9.5C97.2,9.5,97.2,9.4,97.2,9.5c0-0.1-0.1-0.1-0.1-0.1s0,0,0-0.1c-0.1,0.1-0.1,0.4,0,0.5c0,0,0,0,0.1,0
		C97.2,9.6,97.2,9.6,97.2,9.5L97.2,9.5z M97.1,9L97.1,9L97.1,9z M97.1,11.6L97.1,11.6L97.1,11.6z M97.2,9.5L97.2,9.5
		C97.1,9.5,97.1,9.5,97.2,9.5z M98.3,14.5C98.3,14.5,98.2,14.5,98.3,14.5C98.3,14.6,98.3,14.5,98.3,14.5z M98.3,15.8L98.3,15.8
		C98.2,15.7,98.2,15.7,98.3,15.8C98.2,15.8,98.2,15.8,98.3,15.8C98.2,15.8,98.2,15.8,98.3,15.8z M98.5,15.7
		C98.4,15.7,98.4,15.7,98.5,15.7c-0.1-0.1-0.1-0.1-0.2-0.1c0,0.1,0,0.1,0,0.1C98.3,15.8,98.4,15.7,98.5,15.7z M98.5,13.9
		c0,0.1,0,0.1,0,0.1c-0.1,0.2-0.1,0.2-0.2,0.3c0.2,0,0.1-0.2,0.2-0.2c0,0.1-0.1,0.2-0.1,0.3c0.1-0.1,0.3-0.1,0.3-0.2
		c-0.1-0.1-0.1,0.1-0.2,0.1c0.1-0.1,0-0.2,0-0.3C98.6,14,98.6,14,98.5,13.9C98.6,13.9,98.6,13.9,98.5,13.9L98.5,13.9z M98.4,14.5
		C98.4,14.5,98.3,14.5,98.4,14.5C98.4,14.6,98.4,14.6,98.4,14.5z M98.8,13.4C98.8,13.5,98.8,13.5,98.8,13.4
		c-0.1,0.1-0.1,0.2-0.2,0.2c0.1,0.1-0.1,0.1,0,0.2c0.1,0,0.1-0.1,0.2-0.1c0,0.1,0.1,0,0.1,0s-0.1,0.1,0,0.1
		C98.9,13.7,98.9,13.6,98.8,13.4C98.8,13.6,98.8,13.6,98.8,13.4C98.8,13.5,98.8,13.5,98.8,13.4L98.8,13.4
		C98.9,13.5,98.9,13.5,98.8,13.4C99,13.4,98.9,13.3,98.8,13.4L98.8,13.4c0.1-0.2,0.1-0.2,0.2-0.1c0-0.1,0.1-0.3,0.2-0.4
		c-0.1,0-0.1,0-0.1-0.2c-0.2,0-0.1,0.1-0.1,0.2C98.8,13.1,98.8,13.2,98.8,13.4z M98.6,14.1C98.6,14.1,98.7,14.1,98.6,14.1L98.6,14.1
		z M98.6,14.9C98.6,14.9,98.7,14.9,98.6,14.9C98.7,14.9,98.6,14.9,98.6,14.9z M98.6,14C98.7,14,98.7,14,98.6,14
		C98.7,14,98.6,14,98.6,14z M98.7,13.9L98.7,13.9L98.7,13.9z M98.8,14.7L98.8,14.7C98.8,14.8,98.9,14.7,98.8,14.7L98.8,14.7
		c0.1-0.1,0.1-0.2,0.2-0.3C98.8,14.5,98.8,14.6,98.8,14.7C98.7,14.6,98.7,14.9,98.8,14.7z M98.8,14C98.8,14,98.8,13.9,98.8,14
		C98.8,13.9,98.8,13.9,98.8,14C98.7,14,98.8,14.1,98.8,14z M99.1,13.7c-0.1-0.1,0-0.1-0.1-0.2c0,0.1-0.1,0.1-0.1,0.1
		C99,13.6,99,13.7,99.1,13.7z M99.1,13.2c0,0.1-0.1,0.1-0.1,0.1C99.1,13.4,99.1,13.3,99.1,13.2z M99,13L99,13C99.1,13,99,13,99,13z
		 M99.1,14.2C99.1,14.2,99.1,14.1,99.1,14.2C99,14.1,99,14.2,99.1,14.2L99.1,14.2z M99.4,12c-0.1,0-0.1,0-0.2,0
		c0,0.1,0.1,0.1,0.1,0.2c-0.1,0,0,0.1,0,0c0.1,0,0,0.3-0.1,0.1c0,0.1,0.1,0.1,0,0.1l0,0c-0.1,0.1,0,0.1-0.1,0.2c0.1,0-0.1,0.1,0,0.1
		s0.1-0.1,0.1,0.1c0.1,0,0.1-0.1,0.1-0.1c-0.1,0-0.1,0-0.1,0s0,0,0-0.1c0,0.1,0.1,0,0,0c0.1-0.1,0.1-0.2,0.2-0.3
		C99.3,12.3,99.4,12.2,99.4,12C99.3,12.1,99.3,12.1,99.4,12C99.3,12.1,99.4,12.1,99.4,12L99.4,12C99.5,12,99.4,12,99.4,12
		C99.4,11.9,99.3,12,99.4,12L99.4,12z M99.1,14.6c0-0.1,0.1-0.2,0.2-0.4C99.3,14.4,99.1,14.6,99.1,14.6z M99.1,12.6
		C99.1,12.7,99.2,12.7,99.1,12.6L99.1,12.6z M99.2,13.8c0.1,0,0.1-0.1,0.1-0.2l0,0C99.2,13.6,99.2,13.7,99.2,13.8z M99.3,14.9
		C99.2,14.9,99.2,14.8,99.3,14.9C99.3,14.8,99.2,14.8,99.3,14.9z M99.3,14.2C99.3,14.2,99.2,14.2,99.3,14.2L99.3,14.2z M99.3,12.9
		L99.3,12.9L99.3,12.9z M99.3,11.8C99.4,11.8,99.2,11.7,99.3,11.8C99.2,11.8,99.3,11.9,99.3,11.8z M99.3,14.1c0-0.1,0-0.1,0-0.2l0,0
		C99.4,14.1,99.4,14.1,99.3,14.1z M99.4,12.6C99.5,12.6,99.3,12.6,99.4,12.6C99.3,12.6,99.4,12.6,99.4,12.6L99.4,12.6z M99.3,12.5
		C99.4,12.5,99.4,12.5,99.3,12.5C99.4,12.5,99.3,12.5,99.3,12.5z M99.3,14.8C99.3,14.8,99.3,14.7,99.3,14.8
		C99.4,14.7,99.4,14.8,99.3,14.8z M99.4,12C99.4,11.9,99.4,12,99.4,12L99.4,12z M99.4,14.6c0-0.1,0-0.4,0.2-0.4
		C99.5,14.3,99.5,14.5,99.4,14.6z M99.5,13.8c-0.1,0,0-0.1,0-0.1C99.6,13.7,99.5,13.7,99.5,13.8z M99.5,13.6
		C99.5,13.6,99.5,13.5,99.5,13.6C99.6,13.6,99.6,13.6,99.5,13.6z M99.6,13L99.6,13L99.6,13C99.5,13,99.5,13,99.6,13L99.6,13z
		 M99.6,10.8L99.6,10.8C99.6,10.8,99.6,10.7,99.6,10.8z M100.3,12.8c-0.4,0.4-0.4,1-0.7,1.4c0.2-0.7,0.5-1.3,0.7-2
		c0,0-0.1,0-0.1-0.1c0.1-0.1,0.1,0,0.1-0.1c0.2,0.1,0-0.5,0.3-0.5c0,0.1,0,0.1,0,0.1c0.1,0,0-0.1,0-0.2c0.1,0,0,0.2,0,0.2
		c-0.1,0.1,0,0-0.1,0c0,0.1,0,0.1,0,0.1c0.1,0.1-0.1,0.3-0.1,0.2V12c0,0.1,0.1,0,0.1,0c-0.1,0.1-0.1,0.2-0.1,0.3
		c-0.1,0-0.2,0-0.1,0.1C100.3,12.6,100.3,12.7,100.3,12.8z M99.7,13.4c-0.1,0,0-0.1,0-0.2C99.8,13.2,99.7,13.4,99.7,13.4z
		 M99.7,11.9C99.7,11.9,99.8,11.8,99.7,11.9C99.9,11.7,99.7,11.7,99.7,11.9C99.7,11.7,99.7,11.9,99.7,11.9z M99.9,12.7
		c0,0.2-0.1,0.2-0.1,0.3c-0.1,0,0-0.1,0-0.1C99.8,12.8,99.8,12.7,99.9,12.7z M99.8,10.5C99.8,10.6,99.8,10.6,99.8,10.5
		C99.9,10.7,99.9,10.5,99.8,10.5z M99.8,11.2C99.9,11.2,99.9,11.2,99.8,11.2C99.9,11.1,99.8,11.1,99.8,11.2z M99.8,11.7
		C99.9,11.7,99.9,11.7,99.8,11.7C99.9,11.7,99.8,11.7,99.8,11.7z M99.9,9.6L99.9,9.6C99.9,9.5,99.9,9.5,99.9,9.6L99.9,9.6L99.9,9.6z
		 M99.9,11.9L99.9,11.9L99.9,11.9z M100,11c0,0.1,0,0.1,0.1,0.1C100.1,11.1,100.1,11,100,11z M100.1,11.9c0.1,0,0.1,0.2,0,0.2
		C100.1,12,100.1,12,100.1,11.9z M100.2,11c0.1,0,0.1-0.1,0.1-0.2v-0.1c0,0.1-0.1,0.1,0,0.1C100.2,10.8,100.3,11,100.2,11z
		 M100.3,11.5c-0.1,0,0-0.1,0-0.2C100.4,11.3,100.3,11.4,100.3,11.5z M100.4,11C100.4,11,100.3,11,100.4,11L100.4,11z M100.4,10.5
		c-0.1,0.1-0.1,0.1,0,0.2C100.4,10.6,100.5,10.5,100.4,10.5z M100.4,10.7c0,0.1-0.1,0.2,0,0.2C100.4,10.9,100.5,10.8,100.4,10.7z
		 M100.4,10.3c0.1,0,0.1,0,0.1-0.1c-0.1,0-0.1-0.1-0.1-0.1C100.4,10.2,100.5,10.2,100.4,10.3C100.3,10.3,100.5,10.5,100.4,10.3z
		 M100.5,9.6L100.5,9.6C100.5,9.5,100.5,9.5,100.5,9.6C100.4,9.6,100.4,9.6,100.5,9.6L100.5,9.6z M100.5,9.4L100.5,9.4L100.5,9.4z
		 M100.6,9.7C100.6,9.8,100.5,9.7,100.6,9.7c0,0.1-0.2,0.3,0,0.3c0-0.1,0-0.1,0.1-0.2c0,0.1,0,0.1,0,0.1s0,0,0.1-0.1c0,0.1,0,0,0,0
		c0.1,0,0.1-0.1,0.1-0.3C100.7,9.5,100.8,9.7,100.6,9.7C100.7,9.7,100.7,9.7,100.6,9.7c0.1-0.1,0.1-0.2,0-0.3c0,0.1,0,0.1-0.1,0.1
		C100.5,9.6,100.6,9.6,100.6,9.7C100.5,9.6,100.5,9.7,100.6,9.7z M100.5,4.5C100.5,4.6,100.5,4.6,100.5,4.5
		C100.6,4.7,100.6,4.5,100.5,4.5z M100.6,11.2C100.6,11.3,100.7,11.1,100.6,11.2c0.1,0.1,0,0.2-0.1,0.2
		C100.5,11.3,100.6,11.3,100.6,11.2S100.6,11.2,100.6,11.2z M100.6,9.7L100.6,9.7L100.6,9.7L100.6,9.7z M100.6,9.4
		C100.7,9.4,100.7,9.4,100.6,9.4C100.7,9.3,100.6,9.3,100.6,9.4z M100.8,5.1C100.7,5.1,100.6,5.2,100.8,5.1
		C100.7,5.2,100.8,5.2,100.8,5.1z M100.7,5L100.7,5C100.6,5.1,100.7,5.2,100.7,5z M100.7,9.2C100.6,9.4,100.8,9.3,100.7,9.2
		C100.8,9.2,100.7,9.2,100.7,9.2L100.7,9.2z M100.7,10.1c0,0.1-0.1,0.2,0,0.2C100.8,10.2,100.9,10.1,100.7,10.1z M100.8,5.1
		L100.8,5.1L100.8,5.1z M100.8,10C100.8,10.1,100.9,9.9,100.8,10L100.8,10L100.8,10z M100.9,9.4c0,0.1-0.1,0.1-0.1,0.1
		C100.9,9.5,101,9.5,100.9,9.4C101,9.4,101,9.4,100.9,9.4L100.9,9.4L100.9,9.4C101,9.3,100.8,9.3,100.9,9.4
		C100.9,9.3,100.9,9.4,100.9,9.4L100.9,9.4z M100.9,10.8L100.9,10.8C100.8,10.7,100.8,10.7,100.9,10.8
		C100.8,10.8,100.8,10.8,100.9,10.8C100.8,10.8,100.8,10.8,100.9,10.8z M100.8,9.1C100.9,9.1,100.9,9.1,100.8,9.1
		C100.9,9.1,100.8,9.1,100.8,9.1z M101.1,9C101.1,9,101.1,8.9,101.1,9C101,8.9,101,8.9,101.1,9C101,8.9,101,9,101.1,9
		C101,9,101,9,101.1,9z M101,9.7C101,9.8,101,9.8,101,9.7C101,9.8,101.1,9.8,101,9.7z M101.1,8.4C101.2,8.4,101.2,8.5,101.1,8.4
		C101.2,8.4,101.1,8.3,101.1,8.4z M101.2,5.4c0.1,0,0.1-0.2,0-0.2l0,0C101.3,5.3,101.2,5.3,101.2,5.4z M101.3,8.9
		C101.3,9,101.3,9,101.3,8.9C101.3,9,101.3,8.9,101.3,8.9z M101.4,9.3c-0.1,0,0-0.1,0-0.1V9.3z M101.5,5.5L101.5,5.5L101.5,5.5z"/>
	<path class="st0" d="M122.4,6.2c-0.1,0-0.2,0-0.3,0c0,0.1,0.1,0.1,0.2,0.1c-0.1,0.1-0.3,0.2-0.4,0.1c0,0.1-0.1,0.1,0,0.1
		c-0.5,0.1-1.2,0.1-1.9,0.3c0-0.1-0.2-0.1-0.1,0c-0.2-0.2-0.5,0.1-0.8,0C119,6.9,119,6.9,119,7c-0.2,0-0.2,0.1-0.4,0
		c0-0.2-0.1-0.1-0.2-0.1c0,0.1,0.1,0.1,0.1,0.1c0,0.1-0.1,0.1-0.1,0.1c-0.2-0.2-0.4,0.2-0.7,0.2c0-0.1,0-0.1,0-0.2
		c0,0,0,0.1-0.1,0.1c-0.1,0.1-0.2,0.1-0.2,0.2c-0.1,0-0.1,0-0.1-0.1h-0.1c-0.1,0,0,0.1,0,0.1h-0.1h0.1c0-0.1,0-0.1-0.1-0.1
		c-0.2,0.4-0.7,0.1-1,0.3c0,0,0,0,0.1,0c-0.4,0-0.7,0.2-1,0.3c0,0.1,0.1,0,0.2,0c0,0.1-0.1,0.1-0.2,0.1c-0.3,0.5-0.3,1.2-0.5,1.7
		c0.8-0.3,1.6-0.4,2.5-0.5c0,0,0,0.1,0.1,0.1c0.2-0.1,0.6,0.1,0.8,0.1c-0.1,0.1,0,0.2-0.2,0.1c0,0,0,0.1,0.1,0.1
		c-0.2,0-0.1,0.1-0.2,0.1h0.1c0,0.1-0.1,0.1-0.1,0.1c0.1,0,0,0.1,0.1,0.1c-0.1,0.1-0.1,0.3,0.1,0.4c-0.3,0.1-0.4,0.3-0.7,0.4
		c0,0.1,0.1,0,0.1,0.1c-0.4,0.1-0.6,0.3-1,0.4c0,0.1,0,0.1,0.1,0.1c-0.5,0.1-1,0.3-1.5,0.4c-0.2-0.3-0.4-0.5-0.6-0.8
		c-0.2,0.3-0.2,0.7-0.4,0.9c0,0.1,0.1,0,0.1,0.1c-0.2,0.1-0.1,0.5-0.4,0.7c0,0.1,0,0.2,0.1,0.2c-0.2,0.1-0.1,0.2-0.2,0.3
		c0.2,0.2-0.1,0.4-0.1,0.7c1.5-0.5,3-1.4,4.5-1.5c0.1,0.1,0.4,0.1,0.4,0.3c-0.1,0.1-0.3,0.1-0.3,0.2c0.1,0,0,0.1,0.1,0.1
		c0,0.1-0.1,0.1-0.2,0.1c0,0.1,0.1,0.1,0,0.1s-0.1,0-0.2,0c0.1,0.2,0,0.2-0.2,0.2c0,0.1,0,0.1,0,0.2c-0.4,0.1-0.6,0.6-1,0.6
		c0,0.3-0.5,0.3-0.6,0.6c-0.3-0.1-0.4-0.1-0.6,0.1l0,0c-0.2,0.1-0.4,0.2-0.4,0.4c-0.5,0-0.6,0.5-1.1,0.3c-0.1,0-0.1,0.1-0.1,0.2
		c-1.1,0.3-2.2-0.4-2.7-1.2c0.1-1.4,0.6-2.2,0.9-3.2c0-0.1,0,0,0.1-0.1c0-0.1,0-0.1,0-0.2c0-0.1,0.1-0.1,0.1-0.3
		c0.2-0.1,0.1-0.2,0.1-0.4c0.4-0.5,0.5-1.2,0.7-1.8c-0.1-0.1-0.3,0-0.4,0c-0.4-0.5-1-0.9-1.3-1.5c0.1-0.3,0.5-0.5,0.8-0.4
		c3.1-0.8,6.7-1.6,10-1.5c0,0,0,0,0,0.1c0.3,0,0.4,0.1,0.6,0.2c-0.1-0.1-0.2,0.2,0,0.2c0.1,0-0.1,0-0.1,0c0,0.1-0.1,0.1,0,0.1
		c0,0.1-0.1,0.1-0.2,0.1c0.1,0.1,0.1,0,0.1,0.1C122.4,6.1,122.4,6.2,122.4,6.2z M113,9L113,9C113,8.9,113,8.9,113,9z M113,8.8
		c0-0.1,0.2-0.2,0-0.2C113,8.7,113,8.7,113,8.8C113,8.9,113,8.9,113,8.8z M116.3,7.8c0-0.1,0.1-0.1,0.2-0.1
		C116.4,7.8,116.4,7.8,116.3,7.8z M117.4,7.3C117.4,7.3,117.5,7.3,117.4,7.3L117.4,7.3z M117.8,13.4L117.8,13.4L117.8,13.4z
		 M118.6,7C118.6,7,118.6,7.1,118.6,7C118.7,7,118.6,7,118.6,7z M121,5.4C121,5.4,121.1,5.4,121,5.4L121,5.4z M121.3,6.5
		C121.4,6.5,121.4,6.5,121.3,6.5C121.4,6.4,121.3,6.4,121.3,6.5z M121.6,5.2C121.6,5.2,121.5,5.2,121.6,5.2
		C121.5,5.2,121.5,5.2,121.6,5.2z M121.6,6.5C121.6,6.5,121.7,6.5,121.6,6.5L121.6,6.5z M121.9,6.3C121.9,6.3,122,6.3,121.9,6.3
		L121.9,6.3z"/>
	<path class="st0" d="M131.9,9L131.9,9c0.1,0.1,0,0.1,0,0.2c-0.1,0-0.1,0-0.1,0c0.1,0.2,0,0.4,0,0.5c-0.1-0.1-0.1,0.1-0.2,0.2
		c0,0-0.1,0.2,0,0.2c0,0.2,0,0.2-0.1,0.3c0,0,0,0,0-0.1c-0.2,0.2,0,0.6-0.2,0.9l0,0l0,0c-0.1,0.2-0.1,0.3-0.1,0.4
		c-0.3,0.5-0.5,1.6-0.7,2.4c0.5-0.1,1-0.4,1.5-0.4c0.7-0.4,1.6-0.4,2.5-0.6c0.1,0,0.1,0,0.1,0.1c0.3-0.1,0.6,0,0.9,0
		c0,0.1-0.3,0-0.3,0.1c0,0,0.3,0,0.4,0c0,0.1,0.2,0.2,0.3,0.2c-0.1,0.1-0.1,0.1,0,0.2c-0.1,0-0.1,0-0.2,0c0,0.1,0.2,0,0.2,0
		c0,0.1-0.1,0.1-0.1,0.2c-0.1,0-0.1,0-0.1,0l0,0c-0.1,0.2-0.2,0.2-0.4,0.3c0,0,0,0,0.1,0c-0.6,0.1-0.7,0.1-1.3,0.2
		c0.1,0.3,0.3-0.2,0.5,0.1c0.1-0.1,0.1-0.1,0.3-0.1c0,0.1,0,0.1,0,0.1c-0.5,0-1,0.2-1.4,0.3c-0.3-0.1-0.4,0.2-0.6,0.2h0.1
		c-0.1-0.1-0.6,0.1-0.6,0.2c0,0,0,0-0.1,0V15c-0.1,0-0.1,0.1,0,0.1c0,0.1-0.2,0-0.1,0.1c-0.1,0,0,0,0-0.1c-0.2,0-0.3,0.2-0.6,0.2
		c-0.1,0.1,0,0.2-0.3,0.2l0,0c0,0.1,0.3,0.1,0.3-0.1c0.1,0.1,0.1,0.1,0.2,0c0,0.2-0.1,0.2-0.2,0.2c-0.3,0.2-0.6,0.3-0.9,0.5
		c-0.1,0.1-0.2,0.2-0.3,0.2c0,0.1-0.1,0.1-0.1,0.2c-0.5-0.1-0.9-0.4-1.3-0.6c-0.1,0-0.1,0-0.2,0c-0.3-0.1-0.3-0.3-0.3-0.6
		c0.4-1.7,0.9-3.9,1.4-5.4c0-0.3,0.2-0.5,0.2-0.9c0.3-0.9,0.4-1.7,0.6-2.7c0.1-0.4,0.2-0.9,0.3-1.3c0.4,0,0.6,0.1,0.9,0.2
		c0,0.1,0,0.1,0,0.1c0.1,0,0.2-0.1,0.2,0.1c0.1,0,0-0.2,0.1-0.2c0,0,0,0.1,0,0.2c0.2,0.1,0.3,0.4,0.5,0.6c-0.2,0.6-0.2,1.1-0.4,1.8
		c-0.1,0,0,0.1-0.1,0.1c0.1,0.2,0,0.6-0.2,0.8C132.2,8.6,132,8.8,131.9,9L131.9,9z M131.2,15.4C131.3,15.4,131.3,15.4,131.2,15.4
		C131.3,15.4,131.3,15.4,131.2,15.4C131.3,15.3,131.3,15.3,131.2,15.4C131.3,15.4,131.3,15.4,131.2,15.4L131.2,15.4z M131.8,14.6
		C131.8,14.6,131.9,14.7,131.8,14.6C131.9,14.6,131.8,14.6,131.8,14.6z M132.1,15.1C132.2,15.1,131.9,15.3,132.1,15.1L132.1,15.1z
		 M132.3,14.7C132.2,14.7,132.3,14.6,132.3,14.7c0,0-0.1,0-0.2,0.1C132.2,14.8,132.2,14.8,132.3,14.7z M132.4,14.7
		C132.4,14.7,132.4,14.8,132.4,14.7L132.4,14.7z M132.4,14.6C132.5,14.6,132.5,14.6,132.4,14.6C132.5,14.6,132.4,14.6,132.4,14.6z
		 M132.7,14.7L132.7,14.7C132.7,14.6,132.7,14.6,132.7,14.7C132.8,14.6,132.8,14.6,132.7,14.7C132.7,14.6,132.7,14.6,132.7,14.7
		C132.7,14.6,132.7,14.6,132.7,14.7C132.7,14.6,132.7,14.6,132.7,14.7z M133,14.6C133,14.6,133.1,14.6,133,14.6
		C133,14.5,133,14.5,133,14.6z M133.1,14.3C133.1,14.3,133.2,14.3,133.1,14.3C133.1,14.2,133.1,14.2,133.1,14.3z M133.3,14.5
		L133.3,14.5L133.3,14.5C133.4,14.4,133.3,14.4,133.3,14.5C133.2,14.5,133.3,14.5,133.3,14.5z M133.5,14.4
		C133.5,14.4,133.6,14.5,133.5,14.4C133.5,14.4,133.6,14.3,133.5,14.4z M133.7,14.3L133.7,14.3c-0.1-0.1-0.1,0-0.1,0.1
		C133.7,14.4,133.7,14.4,133.7,14.3z M134,14.3C134.1,14.3,134,14.2,134,14.3C133.9,14.3,134,14.3,134,14.3z M134.2,14.2
		C134.1,14.3,134.3,14.3,134.2,14.2C134.2,14.3,134.2,14.2,134.2,14.2z M135.4,13.9C135.5,13.9,135.5,13.9,135.4,13.9
		C135.5,13.9,135.4,13.9,135.4,13.9z M135.6,13.8C135.6,13.8,135.7,13.8,135.6,13.8L135.6,13.8z"/>
	<path class="st0" d="M144.4,13.5c-0.2,0,0-0.4-0.1-0.5C144.5,13,144.4,13.3,144.4,13.5z M144.4,13v-0.1
		C144.5,12.8,144.5,13,144.4,13z M150.1,8.9C150.2,8.9,150.2,8.8,150.1,8.9c0.3-0.5,0.4-1,0.8-1.4c-0.1,0-0.1-0.1-0.1-0.2
		c0.2,0,0.1-0.2,0.1-0.4c0.1,0,0.1,0,0.1-0.1c-0.1,0-0.1,0-0.1,0.1c-0.3,0.1-0.4,0.4-0.7,0.3c0,0.1,0,0.1,0.1,0.1
		c-0.1,0.1-0.1,0.2-0.2,0.1c0,0.1,0,0.1,0,0.2c-0.2,0.2-0.3,0.5-0.6,0.6c-0.2,0.2-0.3,0.5-0.6,0.5l0,0v0.1l0.1-0.1
		c0,0.1-0.1,0.1-0.1,0.2c-0.1,0.1,0-0.1-0.1-0.1c0,0,0.1-0.2,0.1-0.1c0-0.1,0.1-0.2,0.1-0.2c0-0.1,0.1,0,0.1-0.1l0,0
		c-0.1,0-0.2,0.1-0.2,0.2c-0.1,0,0-0.1,0-0.2c-0.1,0-0.1,0.1-0.1,0.2V8.5c-0.1,0.1-0.1,0.1-0.1,0.2h0.1c0.1,0.1-0.2,0.1-0.2,0.2
		c0,0,0.1,0,0.1,0.1c0.1,0,0.2-0.1,0.2-0.2c0.2,0.1-0.1,0.2-0.1,0.4c-0.1,0,0-0.1-0.1-0.1c0,0.2-0.1,0.4-0.2,0.5
		c-0.1,0-0.1-0.2-0.2,0c-0.1,0,0,0,0,0s0,0,0.1,0c-0.1,0.1-0.2,0.2-0.1,0.4c-0.2,0-0.1,0.2-0.2,0.1c0.1,0.1-0.1,0.4-0.1,0.2l0,0
		c-0.1,0-0.1-0.1-0.2-0.1c-0.1,0-0.1,0.1,0,0.1s0-0.1,0.1-0.1s0,0.3,0.1,0.1c0.1,0.1-0.1,0.2-0.1,0.3c0,0,0,0,0-0.1
		c-0.5,1-1.3,2.1-1.1,3.5l0.1,0.1c0.3,0,0.5,0,0.7,0c2.2-0.4,3.9-2.2,5.5-3.3h0.1c0.1,0,0-0.2,0.1-0.2v0.1c0.1,0,0.1-0.1,0.2-0.2
		l0,0h-0.1c0-0.1,0.1-0.1,0.2-0.1c0,0,0,0,0,0.1l-0.1,0.1c0.1,0,0.1,0,0.1-0.1c0.2-0.1,0.3-0.4,0.5-0.3c0,0-0.1,0.1,0,0.1l-0.1,0.1
		c0,0.1,0.1-0.1,0.2,0c0,0.2-0.1,0.3-0.3,0.3v-0.1c-0.1,0.1-0.3,0.1-0.2,0.2c0.1,0,0.1-0.1,0.1-0.1c0,0.1,0.1,0.1,0.1,0.1
		c0.1,0.1,0-0.1,0.1,0c-0.1,0.2-0.4,0.3-0.5,0.5c-0.1-0.2-0.1,0-0.1,0.1l0,0l0,0c-0.1,0,0,0,0,0s0,0,0.1,0v0.1c0,0,0.1,0,0.1-0.1
		c0,0,0.1,0,0.1-0.1c0.1,0,0.1-0.1,0.2-0.1c-0.1,0.2-0.3,0.3-0.4,0.4c0,0-0.1,0-0.1,0.1v0.1c0,0.1-0.1,0.1-0.2,0.1
		c0.1,0.1,0,0.1,0,0.2c0,0.1-0.1,0.1-0.2,0.1c0,0.1,0.1,0,0.1,0.2h0.1c0,0.2-0.2,0.1-0.2,0.2c0,0,0-0.1-0.1-0.1s-0.2,0-0.3,0
		c0.2,0.1-0.1,0.2,0,0.3c-0.1,0.1-0.1,0.1-0.1,0.3c-0.6,0.5-1.1,1-1.8,1.4c0,0.1,0.1,0,0.1,0c-0.2,0.1-0.5,0-0.6,0.3
		c-0.2,0-0.2,0.1-0.2,0.1c0,0.1,0.1,0,0.1,0c-0.3,0-0.5,0.3-0.8,0.2c-0.1,0,0,0.1,0,0.1c-0.3,0-0.7,0.2-1.1,0.2c0,0-0.1,0-0.1-0.1
		c-1.1,0.2-2-0.5-2.8-1v-0.1c-0.1,0.1-0.2,0-0.3-0.1c0,0,0,0,0.1,0c-0.1-0.2-0.3-0.5-0.3-0.8c0,0.1,0.1,0,0,0
		c-0.1-0.3-0.2-0.5-0.1-0.9c0,0,0.1,0,0.1,0.1c0.1-0.2,0.1-0.2,0.1-0.4c0-0.1,0,0-0.1,0c0-0.1,0.1-0.1,0.1-0.1
		c0.1-0.4,0.1-1,0.4-1.2c0,0,0.2,0.1,0.1-0.1c0,0,0.1,0,0.1,0.1c0.1,0,0.1-0.2,0.1-0.2s0,0,0-0.1c-0.1,0-0.1,0.1-0.1,0.1
		c0.2-0.6,0.7-1.2,1.1-1.8c0.2,0,0.3-0.2,0.5-0.3c0-0.1-0.1-0.1,0-0.2c0,0,0,0,0,0.1V8.3c0,0,0-0.1,0.1-0.1c0,0,0-0.1-0.1-0.1
		c0.2-0.4,0.4-0.7,0.7-0.9c0-0.1-0.1-0.1-0.1,0c0.2-0.1,0.4-0.3,0.6-0.3c-0.1-0.1,0-0.2,0.1-0.2l0,0l0,0l0,0c0.1,0,0.1-0.1,0.2-0.2
		h-0.1c0,0,0-0.1,0.1-0.1c0-0.1,0-0.1-0.1-0.1c0-0.1,0.1,0.1,0.1,0v0.1c0,0,0,0,0,0.1c0.1,0,0.1-0.1,0.2-0.1h-0.1
		c0-0.3,0.4-0.3,0.5-0.5c0,0.1,0,0,0,0c0.1-0.1,0.2-0.1,0.3-0.2c0.6-0.3,1.1-0.8,1.9-0.8c0.5,0.3,1,0.5,1.2,1.1
		c0.1,0,0.2,0.1,0.3,0.1c0,1.4-0.8,2-1,3.4c-0.1,0-0.1,0.1-0.1,0.1c-0.3,0-0.5-0.2-0.7-0.2c-0.1,0,0-0.1,0-0.1
		c-0.1,0-0.1,0.1-0.1-0.1c-0.2,0-0.4-0.1-0.3-0.3c-0.1,0-0.1,0.1-0.2,0c-0.1-0.1,0-0.1,0-0.2c-0.2,0-0.2,0.1-0.3,0.1
		C150.1,9.1,150.3,8.9,150.1,8.9C150.1,8.9,150.1,8.8,150.1,8.9L150.1,8.9z M144.5,12.5C144.5,12.4,144.5,12.4,144.5,12.5
		C144.5,12.4,144.5,12.4,144.5,12.5C144.6,12.4,144.6,12.5,144.5,12.5z M144.6,14.2c0.1,0.1,0.1,0.2,0.2,0.3
		C144.7,14.5,144.7,14.3,144.6,14.2z M144.7,11.9c-0.1,0,0-0.2,0-0.2C144.8,11.9,144.7,11.9,144.7,11.9z M145.2,11.4L145.2,11.4
		L145.2,11.4z M145.6,10.7L145.6,10.7c-0.1,0.1-0.2,0.1-0.2,0.1C145.6,10.8,145.6,10.8,145.6,10.7z M145.6,11
		C145.6,11,145.5,11,145.6,11L145.6,11z M146,13.4C146,13.5,146.1,13.3,146,13.4C146,13.3,146,13.3,146,13.4L146,13.4z M146,13
		C145.9,13,146.1,13.1,146,13C146,13,146.1,12.9,146,13z M146.1,11.1C146.2,11.1,146.2,11.1,146.1,11.1
		C146.2,11,146.1,11,146.1,11.1z M146.4,9.3c0,0-0.1,0.1,0,0.1C146.4,9.4,146.5,9.3,146.4,9.3z M147,11.2c0-0.1,0-0.1,0-0.3h-0.1
		c0,0.2-0.2,0.3-0.3,0.5C146.8,11.3,146.8,11.2,147,11.2z M146.9,8.7L146.9,8.7L146.9,8.7z M146.9,9.8C146.9,9.8,147,9.8,146.9,9.8
		L146.9,9.8z M147,8.7L147,8.7C146.9,8.7,146.9,8.7,147,8.7z M147,8.8c0,0.1-0.1,0.1-0.1,0.2C147,9,147.1,8.9,147,8.8z M147.1,8.6
		C147.1,8.6,147.2,8.6,147.1,8.6L147.1,8.6z M147.2,9.7C147.2,9.6,147.2,9.6,147.2,9.7C147.1,9.6,147.1,9.6,147.2,9.7
		C147.1,9.6,147.1,9.6,147.2,9.7C147.1,9.7,147.1,9.7,147.2,9.7z M147.1,8.5C147.2,8.5,147.2,8.5,147.1,8.5
		C147.2,8.5,147.2,8.5,147.1,8.5C147.2,8.4,147.2,8.4,147.1,8.5C147.2,8.4,147.2,8.4,147.1,8.5C147.2,8.4,147.2,8.4,147.1,8.5
		L147.1,8.5z M147.1,8.7C147.2,8.7,147.2,8.7,147.1,8.7C147.2,8.7,147.1,8.7,147.1,8.7z M147.2,9.7L147.2,9.7
		C147.2,9.8,147.1,9.8,147.2,9.7C147.2,9.8,147.2,9.8,147.2,9.7z M147.2,10.5L147.2,10.5C147.4,10.4,147.2,10.4,147.2,10.5z
		 M147.4,10.6c-0.1,0-0.2,0-0.2,0.2C147.3,10.8,147.3,10.6,147.4,10.6z M147.3,8.5C147.3,8.5,147.4,8.5,147.3,8.5
		C147.4,8.4,147.3,8.4,147.3,8.5z M147.4,9.3C147.4,9.3,147.4,9.2,147.4,9.3L147.4,9.3L147.4,9.3z M147.5,7.8L147.5,7.8L147.5,7.8z
		 M147.6,7.7C147.6,7.8,147.6,7.8,147.6,7.7C147.5,7.7,147.5,7.7,147.6,7.7z M147.6,10.1C147.6,10.2,147.6,10.1,147.6,10.1
		c-0.1,0.1,0,0.1,0,0.2c0.1,0,0.1,0,0.2,0c0-0.1,0.1-0.1,0.1-0.2c-0.1,0-0.1-0.2-0.3-0.1c0,0.1,0.1,0,0.1,0.1
		C147.6,10.2,147.6,10.1,147.6,10.1C147.5,10,147.6,10,147.6,10.1C147.7,10.1,147.6,10.1,147.6,10.1z M147.7,8.8
		C147.8,8.8,147.8,8.7,147.7,8.8C147.8,8.6,147.8,8.6,147.7,8.8C147.7,8.7,147.7,8.7,147.7,8.8z M147.7,10.1L147.7,10.1
		C147.7,10,147.7,10,147.7,10.1z M147.8,8.8C147.9,8.7,147.8,8.7,147.8,8.8L147.8,8.8z M147.9,8.5L147.9,8.5
		C147.8,8.5,147.9,8.5,147.9,8.5z M148,7.7C147.9,7.7,148,7.8,148,7.7C148,7.9,148,7.8,148,7.7z M148,8.8L148,8.8
		C147.9,8.8,148,8.8,148,8.8z M148.1,7.7C148.1,7.6,148.1,7.6,148.1,7.7C148,7.7,148.1,7.7,148.1,7.7z M148.3,7.5
		C148.3,7.5,148.3,7.4,148.3,7.5C148.3,7.4,148.3,7.4,148.3,7.5C148.2,7.4,148.2,7.4,148.3,7.5C148.2,7.5,148.2,7.5,148.3,7.5z
		 M148.3,7c0,0,0-0.1,0.1-0.1C148.4,6.9,148.3,7,148.3,7z M148.4,7.3L148.4,7.3L148.4,7.3z M148.4,6.8
		C148.4,6.9,148.4,6.9,148.4,6.8L148.4,6.8z M148.5,7.1c0.1,0,0.2-0.1,0.1-0.1C148.5,7,148.5,7.1,148.5,7.1
		C148.3,7.1,148.5,7.2,148.5,7.1z M148.8,6.9c-0.1,0-0.2,0.1-0.1,0.1C148.7,7,148.8,7,148.8,6.9z M149.1,8.4c-0.1,0-0.2,0-0.1,0.1
		C149,8.5,149.1,8.5,149.1,8.4z M150.1,7.4C150.2,7.4,150.1,7.4,150.1,7.4C150,7.4,150.2,7.5,150.1,7.4z M150.2,15
		C150.2,15,150.1,15,150.2,15C150.1,15,150.1,15,150.2,15z M150.6,7.5c0-0.1,0-0.2,0.1-0.2C150.6,7.4,150.7,7.5,150.6,7.5z M151,6.7
		C150.9,6.7,150.9,6.7,151,6.7C150.9,6.7,151,6.7,151,6.7z M152.2,12.9L152.2,12.9C152.2,12.8,152.2,12.8,152.2,12.9z M152.3,13
		c0-0.1,0.1,0,0.1-0.1C152.5,12.9,152.4,13,152.3,13z M152.5,11.1c-0.1,0-0.2,0.1-0.1,0.1C152.4,11.2,152.5,11.2,152.5,11.1z
		 M152.5,12.8C152.4,12.8,152.4,12.8,152.5,12.8L152.5,12.8z M152.5,12.7C152.5,12.8,152.5,12.8,152.5,12.7L152.5,12.7z M152.6,12.7
		C152.7,12.7,152.7,12.7,152.6,12.7C152.7,12.6,152.6,12.6,152.6,12.7z M152.9,11c0,0-0.1,0.1,0,0.1C152.8,11,153,11,152.9,11z
		 M152.8,11.8C152.9,11.8,152.9,11.8,152.8,11.8c0.1,0.1,0,0.1,0,0.1c0.1,0,0.1,0,0.2,0v-0.1l0,0C153,11.8,153,11.8,152.8,11.8
		C152.9,11.7,152.9,11.7,152.8,11.8C152.9,11.7,152.8,11.7,152.8,11.8L152.8,11.8z M153,12.5C153,12.5,152.9,12.5,153,12.5
		C152.9,12.5,152.9,12.5,153,12.5C152.9,12.4,152.9,12.5,153,12.5z M152.9,12.3c-0.1,0,0.1-0.1,0.1-0.1
		C153.1,12.3,153,12.3,152.9,12.3z M153.1,11.6C153.1,11.5,153.2,11.5,153.1,11.6C153.2,11.5,153.2,11.6,153.1,11.6z M153.2,12
		c-0.1,0,0-0.1,0-0.2C153.3,11.9,153.2,12,153.2,12z M153.7,11.2c0,0.1-0.1,0-0.1,0S153.6,11.2,153.7,11.2z M153.7,11.4L153.7,11.4
		C153.6,11.3,153.6,11.3,153.7,11.4C153.7,11.3,153.7,11.3,153.7,11.4z M153.7,10.6L153.7,10.6C153.7,10.7,153.7,10.7,153.7,10.6
		L153.7,10.6z"/>
	<path class="st0" d="M170,7.4c0,0.1,0,0.1-0.1,0.2c-0.1-0.4-0.3-0.7-0.5-1.1c-0.4-0.2-0.5-0.6-1-0.7c0-0.1-0.2-0.2-0.1-0.3
		c-0.1-0.1,0,0.1-0.1,0.1c-0.2-0.1-0.4-0.4-0.6-0.4c0,0.1,0.2,0.1,0.1,0.2h-0.1v0.1c0,0,0,0,0-0.1c-0.3-0.1-0.5,0.3-0.8,0.1v0.1
		c-0.1-0.1-0.2-0.1-0.2,0c0,0,0.1,0,0.1,0.1c-0.3,0.1-0.5,0.2-0.7,0.4c0,0,0,0,0,0.1c0.1,0,0.1,0.1,0,0.2c0.1,0,0.1,0.1,0.1,0.2
		c-0.1,0-0.2,0.1-0.2,0.1c0-0.1,0-0.1,0-0.1s0-0.1-0.1-0.1c-0.1,0.1,0,0.3-0.2,0.4c-0.1-0.1-0.1,0-0.2,0c0,0.1,0.1,0,0.1,0.1
		c0.1,0,0.1-0.2,0.3-0.1c0.2-0.1,0.4-0.3,0.6-0.3c0,0.1-0.2,0-0.3,0.1c0,0,0.1,0,0.1,0.1c0,0,0.1-0.1,0.1,0s-0.2,0.1-0.1,0.2
		c0.2-0.1,0.2-0.2,0.5-0.2h0.1c0,0.1,0,0-0.1,0c0,0,0,0.1-0.1,0.1c0,0,0,0,0,0.1c0.1,0,0.2-0.1,0.3-0.2c-0.1-0.1-0.2-0.2-0.3-0.2
		l0,0c0-0.1,0.1-0.2,0.2-0.2c0,0,0,0,0,0.1s-0.1,0.2,0,0.2c0,0,0.1,0,0.1-0.1l0,0v0.1c0.1,0,0.2-0.1,0.3-0.1l0,0l0,0
		c0.1,0.1-0.1,0-0.1,0.1c0.1,0,0.1,0.1,0.2,0.1c1.1-0.6,1,1.2,1.1,1.6c-0.1,0.3,0.1,0.5-0.1,0.6v0.1c0.1,0.2-0.1,0.3-0.1,0.5v0.1
		c-0.1,0.2-0.1,0.5-0.2,0.7c0,0.4-0.2,0.6-0.2,0.9c-0.3,0.5-0.5,1.1-0.9,1.6c-0.5,0.7-1.1,1.5-2.1,1.7c-0.3-0.1-0.2-0.4-0.4-0.6
		c0.1-0.1,0,0,0-0.1c0.1,0,0,0.1,0.1,0.1c0-0.3,0.1-0.8-0.3-0.7c0.1-0.1,0-0.2,0-0.4c0.1,0,0-0.1,0.1-0.1c0,0,0,0.1,0.1,0.1
		c0.2-0.2,0.1-0.4,0.1-0.6l0,0v0.1c0-0.1,0.1-0.2,0-0.2c0,0.1,0,0.1-0.1,0.1c0.1-0.1,0.1-0.2,0-0.4c0,0,0,0,0.1,0
		c-0.1-0.3,0.2-0.3,0.3-0.5v-0.1c0,0,0,0-0.1,0c0,0,0,0.1,0,0l0,0c0-0.1,0.1-0.2,0.1-0.4h-0.1c0.1,0,0.1-0.1,0.1-0.2
		c0.1,0,0.1-0.1,0.1-0.1c0-0.5,0.4-0.6,0.5-1.1c0.3-0.3,0.5-0.8,1-0.9c0.1,0,0.1,0.1,0.2,0.1c0.1-0.1,0.1-0.1,0.3-0.1
		c0-0.1,0-0.2,0-0.3c-0.4-0.4-0.9-0.7-1.3-1c-0.2,0.1-0.6,0.3-0.8,0.5c0.1,0,0.1,0,0.1,0.1c-0.1,0-0.1,0.1-0.2,0.1c0,0,0,0-0.1,0
		c-0.8,1-1.4,2.2-1.9,3.4c0,0.7-0.4,1.2-0.3,1.9c0.1,0,0.1,0.4,0.1,0.4c-0.1,0-0.1-0.3-0.2-0.3c0.1,0.3,0.1,0.6,0.3,0.8
		c0.1,0.4,0.4,0.6,0.8,0.9c0.1,0.1,0.2,0.3,0.4,0.4c0.1,0.1,0.2,0,0.3,0.1c0,0,0,0.1,0.1,0.2c0.4,0.3,1,0.2,1.4,0.4
		c0.2-0.1,0.7-0.2,1-0.2c0.7-0.3,1.1-0.7,1.5-1.3c0,0,0.1,0,0.1-0.1c-0.1,0-0.2,0-0.3,0c0.1-0.1,0-0.2,0.2-0.2c0,0,0,0.1,0,0.2
		c0.1,0,0.2,0,0.3-0.1c0,0-0.1,0-0.1-0.1c0.1,0.1,0.1-0.1,0.2-0.1c0-0.3,0.3-0.4,0.3-0.8c0.5-0.4,0.6-1,0.9-1.5
		c-0.1,0,0-0.1-0.1-0.2c0.2-0.1,0.3-0.6,0.2-0.7c0.3-0.8,0.2-1.7,0.2-2.5h-0.1C170.2,8.1,170.1,7.6,170,7.4z M162.9,14
		C162.8,14,162.9,13.8,162.9,14c0.1,0,0.1,0.1,0.1,0.1C162.9,14.1,162.9,14,162.9,14z M164.7,12C164.7,12.1,164.6,12.1,164.7,12
		C164.6,12,164.6,12,164.7,12z M164.9,8C164.9,8,164.9,8.1,164.9,8L164.9,8z M165,11.6c0,0.1-0.1,0.1,0,0.2
		C165,11.7,165.1,11.5,165,11.6z M164.9,8C165,8,165,8,164.9,8C165,8,164.9,8,164.9,8z M165.1,6.9C165.1,6.9,165,6.8,165.1,6.9
		C165,6.9,165.1,7,165.1,6.9z M165,7.9C165,7.9,165.1,7.9,165,7.9L165,7.9z M165,11.5L165,11.5C165.1,11.5,165.1,11.4,165,11.5z
		 M165.2,6.8C165.1,6.8,165.1,6.8,165.2,6.8C165.1,6.9,165.2,6.9,165.2,6.8z M165.2,6.5C165.2,6.6,165.2,6.6,165.2,6.5
		C165.2,6.6,165.3,6.6,165.2,6.5L165.2,6.5z M165.2,6.8L165.2,6.8L165.2,6.8z M165.2,6.8L165.2,6.8C165.3,6.8,165.3,6.7,165.2,6.8
		C165.2,6.7,165.2,6.8,165.2,6.8z M165.4,6.5L165.4,6.5C165.4,6.4,165.4,6.4,165.4,6.5z M165.8,6.2L165.8,6.2
		C165.7,6.2,165.7,6.2,165.8,6.2C165.8,6.3,165.8,6.3,165.8,6.2L165.8,6.2c-0.2,0.1-0.1,0.3-0.3,0.2c0,0.1-0.2,0.2-0.1,0.2
		C165.5,6.5,165.8,6.4,165.8,6.2z M165.5,6.4C165.6,6.3,165.5,6.3,165.5,6.4L165.5,6.4z M165.9,6.5C165.8,6.5,165.8,6.5,165.9,6.5
		L165.9,6.5z M166,5.9C166,5.9,166,6,166,5.9L166,5.9z M166.2,7C166.2,7.1,166.2,7.1,166.2,7C166.2,7.1,166.3,7.1,166.2,7L166.2,7z
		 M166.2,6.4c-0.1-0.2,0.3,0,0.2-0.2c0.1,0,0.1,0,0.1,0C166.5,6.4,166.3,6.3,166.2,6.4z M166.3,6.8C166.2,6.7,166.3,6.7,166.3,6.8
		C166.4,6.7,166.3,6.7,166.3,6.8z M166.6,6.9c-0.1,0-0.3,0-0.3,0.2C166.4,7,166.5,6.9,166.6,6.9z M166.4,6.6
		C166.3,6.5,166.4,6.5,166.4,6.6C166.5,6.5,166.5,6.5,166.4,6.6L166.4,6.6z M166.6,7c-0.1-0.1-0.1,0-0.2,0.1
		C166.5,7,166.6,7,166.6,7z M166.6,6.5L166.6,6.5L166.6,6.5z M166.6,6.2C166.5,6.2,166.6,6.2,166.6,6.2
		C166.7,6.2,166.6,6.2,166.6,6.2z M166.7,6.9C166.7,6.9,166.8,6.9,166.7,6.9L166.7,6.9z M167,6.7c0,0.1-0.3,0.1-0.2,0.2
		C166.9,6.9,166.9,6.9,167,6.7C166.8,6.8,167.2,6.7,167,6.7z M167.2,5.3C167.2,5.3,167.3,5.3,167.2,5.3L167.2,5.3z M167.8,15
		L167.8,15C167.8,15,167.8,15.1,167.8,15z M167.9,14.9C168.1,14.8,167.8,15,167.9,14.9L167.9,14.9z M168.7,14c-0.1,0,0-0.1,0.1-0.1
		C168.8,13.9,168.7,13.9,168.7,14z M168.9,13.6C168.9,13.5,169,13.6,168.9,13.6C168.9,13.6,168.8,13.6,168.9,13.6z M169.4,12.8
		c-0.1,0,0-0.1,0-0.2C169.5,12.6,169.4,12.7,169.4,12.8z M169.4,12.4C169.3,12.4,169.4,12.3,169.4,12.4
		C169.5,12.4,169.5,12.4,169.4,12.4z M169.6,12.1L169.6,12.1C169.5,12.1,169.6,12.1,169.6,12.1z M169.7,12
		C169.7,12,169.8,12,169.7,12L169.7,12z M169.8,7.1c0,0.1,0.1,0.1,0.1,0.2C169.9,7.2,169.8,7,169.8,7.1z M169.9,10.8
		C169.9,10.8,170,10.8,169.9,10.8c0.1,0,0.1,0,0.1,0.1c-0.1,0.1-0.1,0.1,0,0.3c-0.1-0.1-0.1,0-0.2,0C169.8,11,170,10.9,169.9,10.8z
		 M170,8.2C170,8.2,170,8.1,170,8.2C170,8.1,170,8.1,170,8.2c0.1,0,0.1,0,0.1,0c-0.1,0.1,0.1,0.2,0,0.3C170,8.4,170,8.3,170,8.2z
		 M170,10.2c0-0.2,0-0.5,0.2-0.4C170.1,9.9,170.1,10,170,10.2L170,10.2z M170.1,9.2c-0.1,0.2,0.1,0.3,0,0.4c-0.1,0,0-0.2-0.1-0.1
		c0-0.2-0.1-0.5,0-0.7c0.1,0,0,0.2,0.1,0.1C170.1,9.1,170.2,9.1,170.1,9.2C170.2,9.2,170.2,9.3,170.1,9.2z M170.1,8.6
		C170.1,8.6,170.1,8.5,170.1,8.6C170.1,8.5,170.1,8.5,170.1,8.6z"/>
	<path class="st0" d="M188.8,6.3C188.8,6.4,188.8,6.4,188.8,6.3C189,6.3,188.8,6.4,188.8,6.3c0.2,0.4,0,0.8,0.1,1
		c0,0.1-0.1,0-0.1,0.1c0,0,0,0-0.1,0c0,0,0,0,0-0.1v0.1c-0.1,0.1,0.1,0.1,0,0.2c-0.1,0,0,0,0,0c0.1,0,0.1,0.1,0.1,0.1
		c0.1,0.2-0.1,0.5,0,0.8h-0.1c-0.1,0,0,0.2,0.1,0.1c0,0.1-0.1,0.1-0.1,0.1s0,0,0-0.1c-0.1,0.1,0,0.2-0.1,0.2c0.1,0,0.1-0.1,0.1-0.2
		l0,0c0,0.1,0.2,0,0.1,0.1c-0.1-0.1-0.1,0.1-0.1,0.1c0.1,0.1,0,0.1,0.1,0.3h-0.1h0.1c0,0.1-0.1,0.1-0.2,0.1c0,0.2-0.1,0.4,0,0.7
		c0,0.1,0.1,0,0.1,0c0.2,0.3-0.3,0.7,0,1c-0.2,0.1-0.2,0.3-0.2,0.5c0,0,0,0,0.1,0c0,0,0.1,0,0.1,0.1s-0.2,0.1-0.1,0.2
		c0,0.1,0.1,0,0.1,0c0,0.1,0,0.1-0.1,0.2c0,0,0,0-0.1,0v-0.1h-0.1c0,0,0,0.1,0.1,0.1c0,0.2-0.1,0.2,0,0.3c-0.1,0.2,0,0.4,0.1,0.6
		c-0.1,0.1-0.1,0.1-0.3,0.2c0,0.1,0,0.1,0,0.1c0,0.1,0,0,0,0c0-0.1,0.1-0.2,0.2-0.1c0,0.4-0.1,0.4-0.1,0.8c0.2,0.1,0,0.2,0.1,0.3
		c-0.1-0.1-0.1,0.1-0.2,0.1c0,0.1,0.1,0,0.1,0.1c0.1,0,0-0.2,0.1-0.1c0,0.1,0,0.2,0,0.2s0,0-0.1,0c0,0,0,0-0.1,0c0,0,0,0,0.1,0
		c0,0,0,0.1,0.1,0.1c-0.1,0.1,0,0.2-0.1,0.2c0.1,0.5,0.2,0.6,0.3,1.1c-0.1-0.1-0.2,0.1-0.2,0.1c-0.1,0.1,0.1,0.1,0,0.2
		c0.1,0,0.1,0,0.1,0c-0.1,0.1,0,0.2,0,0.3l0,0c0,0,0,0-0.1,0c0-0.2-0.2,0,0,0c0,0.1-0.1,0.1-0.2,0l0,0c0,0.1,0,0.1,0,0.2
		c-0.1-0.1-0.2,0-0.3-0.1l0,0c-0.1,0,0,0,0,0s0,0,0,0.1c-0.1,0.1-0.2,0-0.3,0.1l0,0c-0.1,0.1-0.1-0.1-0.3,0
		c-0.1-0.1-0.1-0.3-0.3-0.4c0-0.2-0.1-0.4-0.1-0.6c-0.2-2.1,0.1-4.8,0.2-6.8c-0.1,0.1-0.1,0.2-0.1,0.3c-0.1,0,0-0.2-0.2-0.1
		c0-0.1,0.1-0.1,0.1-0.2c-0.1,0,0,0.2-0.1,0.2c0-0.3,0.1-0.5,0.1-0.8c0.2,0.1,0.1-0.2,0.2-0.4c0.1,0.1,0.1,0.1,0.1-0.1
		c0,0,0,0,0.1,0v0.1c-0.1,0,0,0.1-0.1,0.1l0,0v0.1c0,0,0,0,0.1,0c0-0.1,0-0.1-0.1-0.1l0,0c0.1,0,0.1-0.1,0.1-0.1
		c0.1-0.1,0-0.3-0.1-0.3c0.1-0.1,0.2-0.3,0.1-0.4c-0.1,0,0,0.1,0,0.1s0-0.1-0.1-0.1h-0.1h0.1c0,0,0,0-0.1,0c0.1,0.1,0,0.1,0.1,0.3
		l0,0l0,0c0,0.1,0,0.2-0.1,0.3l0,0c-0.2,0.6-0.4,1-0.5,1.6c-0.1,0-0.1,0.1-0.1,0.2c0.1,0,0.1-0.1,0.1-0.2c0.1,0,0-0.2,0.2-0.2
		c-0.1-0.1-0.1-0.3,0.1-0.3c0,0.1,0,0.1-0.1,0.1c0,0,0.1,0,0.1,0.1c0.1,0,0-0.1,0.1-0.1c0,0.1-0.1,0.3,0.1,0.4
		c0,0.1-0.1,0.2-0.1,0.3s0.1,0,0.1,0c-0.1,0.1,0,0.2-0.1,0.2c0.1,0.1,0,0.4-0.1,0.5c-0.1-0.1-0.1,0.2,0,0c0,0.1,0,0.1-0.1,0.1l0,0
		c0.1,0.1-0.1,0-0.2,0c0,0,0.1,0.3-0.1,0.2c0,0.1,0.1,0.1,0.1,0.2c0.1,0,0-0.1,0.1-0.1c0.1,0.1-0.1,0.1,0,0.2c-0.1,0-0.3-0.1-0.4,0
		c0.1,0,0,0.1,0.1,0.2c0,0,0,0,0,0.1c0,0,0,0,0-0.1c0,0,0,0,0.1,0c0.1,0.2,0,0.6-0.3,0.6c0,0.3-0.2,0.3-0.4,0.4
		c-0.4,0-0.6,0-1.1-0.1c-0.6,0.3-1.3-0.3-1.3-0.9c-0.2-0.3-0.2-0.6-0.3-1c-0.4,1.2-0.5,2.3-0.9,3.5c0,0,0,0-0.1,0
		c0.1,0.6-0.1,1.2-0.3,1.7c-0.3,0.2-0.7-0.1-0.9,0.2c-0.1-0.2-0.3,0-0.5,0v-0.1c-0.1,0-0.2,0-0.2-0.1c-0.1,0-0.1,0.1-0.1,0.1
		c-0.1-0.1-0.3,0-0.4-0.1c-0.1,0-0.1,0.1-0.2,0.1c-0.1-0.1-0.1-0.1-0.3-0.1c0-0.1,0-0.2,0.1-0.2c0-0.4,0.1-0.8,0.3-1.2
		c-0.2-0.3,0.5-0.8,0.2-1.1c0,0,0-0.1,0.1-0.1c0.1,0.1,0.1,0,0.2,0c-0.1-0.1,0-0.4,0.2-0.4c0-0.1-0.1,0-0.1-0.1c0.1,0,0-0.2,0.1-0.3
		c0-0.1-0.1,0-0.1,0c0-0.2,0.2-0.2,0.2-0.4c0-0.1,0,0-0.1,0c0.1-0.1,0.1-0.2,0.2-0.3c-0.1-0.1,0.1-0.3,0.1-0.4
		c0.1,0,0.1,0.1,0.1,0.1c0-0.1,0-0.1,0-0.2c-0.1,0.1-0.1,0-0.2-0.1c0-0.1,0.1,0,0.1-0.1s-0.1,0-0.1-0.1c0.1,0.1,0.1,0,0.1-0.1l0,0
		c0,0,0-0.1,0.1-0.1c0-0.1-0.2,0-0.1-0.1c0.1,0,0.2,0,0.2-0.1c-0.1-0.1-0.2,0.1-0.2,0s0.1-0.1,0.1-0.1c0-0.4,0.3-0.5,0.3-0.7
		c0.1,0.1,0.1,0,0.2,0c0-0.1-0.1,0-0.2,0c0-0.1,0.1-0.2,0.1-0.3c-0.1,0-0.1,0.1-0.1,0.1c-0.3-0.5,0.3-1.1,0.2-1.7c0.1,0,0.1,0,0.1,0
		s0-0.1-0.1-0.1c0.2,0,0.1-0.2,0.1-0.5c0.2,0,0-0.3,0.2-0.3c0-0.1-0.1-0.1,0-0.2c0.1,0,0.1-0.1,0.1-0.2c0,0,0,0,0.1,0c0,0.1,0,0,0,0
		s0,0,0-0.1c0.1,0,0.1-0.1,0.1-0.2c0,0,0,0,0-0.1c0,0,0,0,0,0.1c-0.1,0.1,0.1-0.3,0.1-0.4c0.1,0,0.1-0.1,0.2-0.1c0,0.1,0,0,0,0
		c0-0.1,0.1-0.1,0.1-0.1c0.1,0.1,0.2,0.1,0.3,0c0,0,0,0.1,0.1,0.1c0,0.1,0,0,0,0c0.2,0,0.3-0.1,0.5,0h-0.1c0,0.1,0.1,0,0.2,0
		c0.1,0.2,0.7,0.1,0.7,0.5c0.1,0,0.1,0.1,0.2,0.1c0,0,0,0.1,0.1,0.1c0,0.4,0.2,0.7,0.2,1.1c0,0,0,0-0.1,0l0,0c0,0,0,0,0.1,0
		c-0.1,0.1,0.1,0.3,0,0.4c0.1,0.1,0.2,0.3,0.1,0.5c0-0.1-0.1,0,0,0v0.1c0,0.1,0.1,0,0.1,0c0.1,0.5,0,0.7,0.1,1h-0.1v0.1
		c0.1,0,0-0.1,0.1-0.1c0,0.1,0.1,0.3,0,0.3c0.1,0.1,0.2,0.3,0,0.3c0.1,0,0.1,0,0.1,0.2h-0.1c0,0.1,0.1,0,0.1,0.1
		c0.1-0.1,0-0.3,0.1-0.4c0.1,0.1,0.1,0,0.1,0c0-0.1,0-0.1,0-0.2c-0.1,0,0,0.2-0.2,0.2c0-0.2,0.1-0.3,0.2-0.4l0,0H185
		c0.2-0.5,0.3-0.9,0.5-1.2c0,0,0,0-0.1,0c0.2-0.7,0.4-1.2,0.6-1.7c0,0,0,0.1,0.1,0.1c0-0.1,0-0.1-0.1-0.1c0-0.1,0-0.2,0.1-0.2
		c0-0.1-0.1,0-0.1-0.1c0.4-0.5,0.5-1.6,1.4-1.1c-0.1,0.1,0.1,0.2,0.2,0.1C188.3,5.7,188.9,5.8,188.8,6.3L188.8,6.3z M180.8,12.5
		C180.8,12.5,180.8,12.6,180.8,12.5L180.8,12.5z M181,10.7C180.9,10.7,180.9,10.6,181,10.7L181,10.7z M181.1,11.7
		C181.2,11.6,181,11.6,181.1,11.7C181,11.6,181,11.6,181.1,11.7L181.1,11.7z M181.2,10.9c-0.1,0-0.1,0-0.1,0.1
		C181.1,11,181.2,11,181.2,10.9z M181.1,9.9L181.1,9.9C181.2,9.8,181.2,9.9,181.1,9.9z M181.2,12.3c-0.1,0.1,0,0.1,0,0.2
		C181.3,12.4,181.3,12.3,181.2,12.3z M181.3,9.7C181.3,9.8,181.2,9.8,181.3,9.7C181.2,9.7,181.2,9.7,181.3,9.7z M181.4,9.5
		c0,0.1-0.1,0.2-0.2,0.2c0-0.1,0-0.2,0-0.3C181.3,9.4,181.4,9.5,181.4,9.5z M181.2,10.9C181.3,10.9,181.3,10.9,181.2,10.9
		C181.3,10.9,181.2,10.9,181.2,10.9z M181.3,11.5c0,0.2,0,0.2,0,0.4c0.2,0,0.2-0.3,0.2-0.4c0.1,0,0-0.1,0,0
		C181.3,11.4,181.3,11.5,181.3,11.5z M181.3,11.3L181.3,11.3C181.4,11.3,181.4,11.2,181.3,11.3L181.3,11.3
		C181.2,11.4,181.3,11.4,181.3,11.3z M181.3,11.2C181.4,11.2,181.4,11.2,181.3,11.2C181.4,11.1,181.3,11.1,181.3,11.2z M181.5,10.6
		C181.5,10.7,181.4,10.7,181.5,10.6C181.4,10.8,181.6,10.7,181.5,10.6z M181.4,10.9C181.4,11,181.4,11,181.4,10.9
		C181.5,11,181.4,10.9,181.4,10.9z M181.6,10.2C181.5,10.2,181.5,10.1,181.6,10.2C181.5,10.2,181.4,10.3,181.6,10.2
		C181.5,10.3,181.6,10.3,181.6,10.2z M181.5,8L181.5,8L181.5,8z M181.5,9.7L181.5,9.7L181.5,9.7z M181.5,10.6L181.5,10.6
		C181.6,10.7,181.6,10.6,181.5,10.6z M181.6,10.8C181.6,10.7,181.6,10.7,181.6,10.8C181.5,10.8,181.6,10.9,181.6,10.8z M181.6,9.3
		L181.6,9.3L181.6,9.3z M181.7,10.3c0,0.1-0.1,0.2,0,0.2C181.6,10.5,181.7,10.5,181.7,10.3L181.7,10.3L181.7,10.3z M181.6,9.9
		c0.1,0,0.1,0,0.1-0.1c-0.1,0,0-0.2-0.1-0.2C181.7,9.7,181.7,9.8,181.6,9.9C181.7,9.9,181.6,9.9,181.6,9.9z M181.7,9.4
		c0.2,0,0,0.2,0.1,0.2v0.1V9.6c0-0.1,0-0.1,0.1,0c0-0.1,0.1-0.1,0.1-0.2l0,0c0-0.1-0.1-0.1-0.1-0.2c-0.1,0-0.1-0.1-0.1-0.1
		s0.1,0,0.1-0.1c-0.1,0-0.1,0-0.1,0v0.1C181.8,9.2,181.8,9.4,181.7,9.4z M181.7,9.3L181.7,9.3C181.7,9.3,181.7,9.2,181.7,9.3z
		 M181.8,7L181.8,7C181.7,7,181.8,7,181.8,7z M181.8,10L181.8,10L181.8,10z M181.8,10.3C181.8,10.2,181.8,10.2,181.8,10.3
		C181.8,10.2,181.8,10.2,181.8,10.3C181.8,10.2,181.8,10.2,181.8,10.3L181.8,10.3z M181.8,9.4L181.8,9.4
		C181.9,9.3,181.9,9.5,181.8,9.4z M181.9,8.8C181.8,8.9,181.9,9,181.9,8.8C182,8.8,181.9,8.9,181.9,8.8z M182,10.3
		c-0.1,0.1-0.1,0.1,0,0.2C181.9,10.4,182.1,10.3,182,10.3z M182,8.7C182.1,8.6,181.9,8.6,182,8.7C181.9,8.7,182,8.7,182,8.7z
		 M182,6.4c-0.1-0.1,0-0.2,0.2-0.2C182.1,6.3,182.1,6.4,182,6.4z M182.3,12.6c0-0.1,0.1-0.1,0-0.2c-0.1,0-0.2,0-0.2,0.1
		C182.2,12.5,182.2,12.6,182.3,12.6z M182.3,7.9C182.2,7.9,182.1,8,182.3,7.9C182.2,8,182.3,8,182.3,7.9z M182.2,7.4
		C182.2,7.3,182.2,7.3,182.2,7.4C182.1,7.4,182.2,7.4,182.2,7.4z M182.3,7.1C182.3,7,182.1,7.1,182.3,7.1L182.3,7.1z M182.2,7.5
		C182.3,7.5,182.3,7.5,182.2,7.5C182.3,7.5,182.2,7.5,182.2,7.5z M182.4,7.4c-0.1,0-0.1-0.1-0.2,0C182.3,7.4,182.4,7.5,182.4,7.4z
		 M182.5,7.2C182.5,7.3,182.6,7.1,182.5,7.2C182.5,7.1,182.5,7.1,182.5,7.2C182.4,7.1,182.4,7.1,182.5,7.2
		C182.4,7.2,182.4,7.2,182.5,7.2z M182.6,7.5C182.7,7.5,182.7,7.5,182.6,7.5C182.7,7.5,182.6,7.5,182.6,7.5z M183,5.5
		C183,5.5,183,5.6,183,5.5C183,5.6,183,5.5,183,5.5C182.9,5.5,183,5.5,183,5.5z M183.4,10.9c-0.1,0,0,0.2,0.1,0.2
		C183.4,11,183.5,11,183.4,10.9z M183.6,8.5C183.6,8.5,183.5,8.5,183.6,8.5C183.6,8.5,183.6,8.6,183.6,8.5L183.6,8.5z M183.6,9
		C183.6,8.9,183.6,8.9,183.6,9C183.5,9,183.6,9,183.6,9z M183.7,11.7C183.7,11.5,183.6,11.7,183.7,11.7L183.7,11.7z M183.7,9.2
		C183.6,9.1,183.6,9.2,183.7,9.2C183.6,9.3,183.8,9.2,183.7,9.2z M183.8,8.1C183.8,8.2,183.9,8.2,183.8,8.1
		C183.9,8.1,183.9,8.1,183.8,8.1z M184.3,8.2c-0.1-0.1-0.1,0.1-0.1,0.1C184.2,8.2,184.3,8.2,184.3,8.2z M185.5,9.4c0,0,0,0.2,0,0.1
		C185.5,9.5,185.5,9.3,185.5,9.4z M185.6,9.7C185.5,9.7,185.6,9.7,185.6,9.7L185.6,9.7C185.7,9.6,185.6,9.4,185.6,9.7
		C185.6,9.5,185.6,9.6,185.6,9.7z M185.6,10.9C185.7,10.9,185.6,10.8,185.6,10.9C185.5,10.9,185.6,10.9,185.6,10.9z M185.7,10.4
		c0,0.1-0.1,0.2-0.1,0.3C185.7,10.8,185.8,10.5,185.7,10.4z M185.8,11.3C185.8,11.2,185.8,11.2,185.8,11.3
		C185.7,11.3,185.8,11.3,185.8,11.3z M185.9,9.6L185.9,9.6L185.9,9.6c0,0.1-0.1,0.1-0.1,0.2c0,0,0,0,0.1,0v0.1l0,0c0,0,0,0,0,0.1
		l0,0c-0.1,0-0.1,0.2-0.1,0.2c0.1,0,0.1-0.1,0.1-0.2l0,0l0,0c0,0,0,0,0.1,0c-0.1-0.2,0-0.3,0.2-0.3c0-0.1,0-0.1,0-0.2
		c-0.2,0-0.1,0,0-0.1C185.9,9.4,186,9.6,185.9,9.6c0,0.1,0.1,0.2,0,0.2C185.9,9.7,185.9,9.7,185.9,9.6z M185.9,9.9L185.9,9.9
		L185.9,9.9z M186,10.8C186,10.7,186,10.6,186,10.8c0-0.3,0.2-0.4,0.1-0.6c0,0.1-0.1,0.2,0,0.2C185.9,10.5,185.8,10.8,186,10.8z
		 M185.9,11.1C186,11.1,186,11.1,185.9,11.1C186,11.1,185.9,11.1,185.9,11.1z M186.1,9.2C186.1,9.1,186.1,9.1,186.1,9.2
		C186,9.2,186.1,9.3,186.1,9.2z M186.1,8.9c0,0.1,0.1,0.2,0.1,0.1C186.2,9,186.2,8.9,186.1,8.9z M186.2,9.7c0,0.1-0.1,0.2-0.1,0.3
		C186.3,10.1,186.2,9.8,186.2,9.7c0.1,0.1,0.1,0.1,0.1,0.2c-0.1,0,0,0,0,0l0,0c-0.1-0.3,0.1-0.4,0-0.7
		C186.3,9.4,186.3,9.6,186.2,9.7L186.2,9.7z M186.3,10.4C186.4,10.3,186.2,10.2,186.3,10.4C186.2,10.4,186.3,10.4,186.3,10.4z
		 M186.3,10.1C186.4,9.9,186.2,10.1,186.3,10.1C186.3,10.2,186.5,10,186.3,10.1z M186.5,10.3c0,0.1,0,0.1,0,0.2
		c-0.1,0.1-0.1,0.2-0.1,0.3c0.2,0,0.1-0.1,0.1-0.3C186.6,10.5,186.4,10.4,186.5,10.3C186.6,10.3,186.5,10.1,186.5,10.3
		C186.5,10.2,186.5,10.3,186.5,10.3L186.5,10.3z M186.4,8.7C186.3,8.7,186.4,8.7,186.4,8.7L186.4,8.7C186.4,8.6,186.4,8.6,186.4,8.7
		C186.4,8.6,186.4,8.6,186.4,8.7z M186.4,9.2L186.4,9.2C186.4,9.3,186.4,9.2,186.4,9.2z M186.4,9.1c0.1,0,0.2-0.3,0.1-0.2l0,0
		C186.4,9,186.4,9.1,186.4,9.1z M186.5,9.7c0.1,0,0.1-0.1,0-0.1V9.7C186.4,9.7,186.5,9.7,186.5,9.7z M186.6,8.7L186.6,8.7
		c-0.1,0-0.1,0.1-0.1,0.1C186.6,8.9,186.6,8.8,186.6,8.7c0.1,0.1,0.1-0.1,0-0.1l0,0V8.7z M186.5,10.7c0,0.1,0,0.1,0,0.1
		S186.7,10.7,186.5,10.7z M186.7,11.5c-0.1,0-0.1-0.1-0.1-0.2C186.7,11.3,186.8,11.4,186.7,11.5z M186.7,8.3c0,0.1-0.1,0.1,0,0.2
		C186.7,8.4,186.8,8.3,186.7,8.3z M186.9,7.6c0,0.2-0.1,0.3-0.1,0.5C186.9,8,187,7.8,186.9,7.6C187,7.7,187,7.6,186.9,7.6z
		 M186.9,10.3C186.8,10.3,186.8,10.3,186.9,10.3L186.9,10.3z M186.8,8.7C186.8,8.7,186.9,8.7,186.8,8.7L186.8,8.7z M186.9,10
		C187,10,187,10,186.9,10C187,10,186.9,10,186.9,10z M187,8.2c0-0.1,0.2-0.3,0-0.3l0,0C187,8,186.9,8.2,187,8.2z M187.1,7.4L187,7.5
		C187.1,7.5,187.2,7.4,187.1,7.4z M187.1,7.2L187.1,7.2L187.1,7.2C187.1,7.3,187.1,7.3,187.1,7.2C187.2,7.3,187.1,7.3,187.1,7.2
		C187.2,7.2,187.2,7.2,187.1,7.2L187.1,7.2C187.2,7.1,187.1,7.1,187.1,7.2L187.1,7.2z M187.2,9.6C187.2,9.6,187.1,9.6,187.2,9.6
		C187.1,9.6,187.1,9.6,187.2,9.6z M187.4,8.7c-0.1,0-0.2-0.1-0.2,0c0.2,0.1-0.2,0.1-0.1,0.3C187.2,8.7,187.4,8.9,187.4,8.7z
		 M187.3,6.7C187.3,6.8,187.3,6.8,187.3,6.7C187.4,6.7,187.4,6.7,187.3,6.7C187.4,6.7,187.4,6.7,187.3,6.7L187.3,6.7z M187.3,8
		L187.3,8L187.3,8z M188.3,8C188.3,8.1,188.2,8.1,188.3,8C188.3,8.1,188.4,8,188.3,8z M188.3,6.4C188.3,6.4,188.3,6.5,188.3,6.4
		L188.3,6.4z M188.3,7.6c0.2,0.1,0.1-0.1,0.1-0.2h-0.1l0,0C188.3,7.5,188.4,7.6,188.3,7.6z M188.3,7.1c0,0.1-0.1,0.2,0,0.2
		S188.4,7.1,188.3,7.1z M188.3,7.9C188.3,7.9,188.4,7.9,188.3,7.9L188.3,7.9z M188.3,7C188.4,7,188.3,7,188.3,7
		C188.3,7.1,188.3,7.1,188.3,7z M188.3,13.9C188.4,14,188.4,13.9,188.3,13.9L188.3,13.9C188.4,13.8,188.3,13.8,188.3,13.9
		L188.3,13.9z M188.4,14.9C188.4,14.9,188.3,15,188.4,14.9L188.4,14.9z M188.3,13C188.4,13,188.4,12.9,188.3,13
		C188.4,12.9,188.4,12.9,188.3,13L188.3,13z M188.4,9.9C188.4,9.9,188.5,9.8,188.4,9.9C188.4,9.8,188.3,9.9,188.4,9.9
		C188.3,10,188.5,10,188.4,9.9z M188.5,7C188.4,7,188.4,6.9,188.5,7C188.4,7,188.4,7,188.5,7C188.5,7,188.5,6.9,188.5,7
		C188.5,6.9,188.5,6.9,188.5,7C188.4,6.8,188.3,7,188.5,7L188.5,7z M188.4,12.2C188.4,12.2,188.4,12.3,188.4,12.2
		c0.1,0,0.1-0.2,0-0.1V12.2L188.4,12.2z M188.4,8.6C188.5,8.6,188.4,8.4,188.4,8.6C188.4,8.5,188.4,8.6,188.4,8.6
		C188.3,8.6,188.4,8.7,188.4,8.6z M188.4,12.5C188.4,12.4,188.3,12.5,188.4,12.5C188.5,12.6,188.5,12.5,188.4,12.5z M188.4,12.3
		L188.4,12.3C188.4,12.4,188.4,12.3,188.4,12.3z M188.4,8.8v0.1C188.5,8.9,188.5,8.8,188.4,8.8z M188.5,11c0-0.1,0.1-0.1,0.1-0.1
		h-0.1c0-0.1,0.1-0.1,0.1-0.2c-0.2,0-0.1,0.1-0.2,0.2l0,0c0,0,0,0,0.1,0C188.5,10.9,188.4,10.9,188.5,11z M188.5,12.1V12
		C188.4,11.9,188.4,12,188.5,12.1C188.4,12,188.5,12.1,188.5,12.1z M188.4,11L188.4,11C188.5,11.1,188.5,11,188.4,11z M188.5,11.2
		L188.5,11.2c-0.1,0-0.1,0.1-0.1,0.1S188.5,11.3,188.5,11.2z M188.5,13.4C188.5,13.4,188.5,13.3,188.5,13.4
		C188.5,13.4,188.4,13.4,188.5,13.4L188.5,13.4z M188.5,11.1L188.5,11.1L188.5,11.1z M188.5,10c0,0.1,0,0.4,0,0.4
		S188.6,10.1,188.5,10z M188.6,9.9L188.6,9.9c0-0.1,0-0.1,0-0.1C188.6,9.8,188.4,9.8,188.6,9.9C188.5,10,188.6,10,188.6,9.9z
		 M188.6,15C188.6,15.1,188.4,14.9,188.6,15C188.6,14.9,188.5,15,188.6,15z M188.5,9.6C188.6,9.7,188.6,9.5,188.5,9.6
		C188.5,9.5,188.5,9.5,188.5,9.6L188.5,9.6z M188.6,13c0,0,0.1-0.2,0-0.2c0,0,0,0-0.1,0C188.5,12.9,188.5,12.9,188.6,13z M188.5,9.1
		c0,0.2-0.1,0.3,0,0.4C188.5,9.3,188.6,9.1,188.5,9.1z M188.5,8.7c0,0.1,0,0.2,0,0.2C188.5,8.8,188.6,8.8,188.5,8.7z M188.5,6.7
		c0.1,0.1,0,0.6,0.1,0.5C188.7,7.2,188.7,6.7,188.5,6.7z M188.6,9.9L188.6,9.9C188.5,9.8,188.6,9.8,188.6,9.9z M188.6,15.2
		C188.6,15.2,188.6,15.1,188.6,15.2C188.5,15.1,188.5,15.1,188.6,15.2C188.6,15.1,188.6,15.1,188.6,15.2z M188.5,15.6
		C188.5,15.7,188.6,15.7,188.5,15.6C188.6,15.6,188.6,15.6,188.5,15.6z M188.6,8.3c0,0.2,0,0.2,0.1,0.3
		C188.6,8.4,188.6,8.3,188.6,8.3z M188.6,8.2C188.6,8.1,188.6,8.1,188.6,8.2C188.5,8.2,188.6,8.3,188.6,8.2z M188.6,7.3
		c0,0.2-0.1,0.3,0,0.4c-0.1-0.1,0.1-0.2,0-0.2C188.7,7.4,188.7,7.3,188.6,7.3C188.7,7.3,188.6,7.3,188.6,7.3L188.6,7.3z M188.6,16.5
		C188.7,16.5,188.7,16.6,188.6,16.5L188.6,16.5z M188.7,10.9C188.6,10.9,188.6,10.9,188.7,10.9C188.7,11,188.7,10.9,188.7,10.9z
		 M188.7,6.3c0,0.1-0.1,0.2,0,0.2C188.7,6.4,188.8,6.3,188.7,6.3z M188.7,9.2C188.8,9.2,188.8,9.1,188.7,9.2
		C188.7,9.1,188.7,9.1,188.7,9.2C188.7,9.1,188.7,9.1,188.7,9.2z M188.8,6.7c0,0.2-0.1,0.3,0,0.4C188.8,7,188.9,6.8,188.8,6.7z
		 M188.8,7.8C188.8,7.8,188.8,7.9,188.8,7.8L188.8,7.8z M189,7.2L189,7.2C188.9,7.2,189,7.2,189,7.2z M188.9,7.4
		C188.9,7.4,189,7.3,188.9,7.4C189,7.2,189.1,7.5,188.9,7.4z"/>
	<path class="st0" d="M210.4,6.2c-0.1,0-0.2,0-0.3,0c0,0.1,0.1,0.1,0.2,0.1c-0.1,0.1-0.3,0.2-0.4,0.1c0,0.1-0.1,0.1,0,0.1
		c-0.5,0.1-1.2,0.1-1.9,0.3c0-0.1-0.2-0.1-0.1,0c-0.2-0.2-0.5,0.1-0.8,0C207,6.9,207,6.9,207,7c-0.2,0-0.2,0.1-0.4,0
		c0-0.2-0.1-0.1-0.2-0.1c0,0.1,0.1,0.1,0.1,0.1c0,0.1-0.1,0.1-0.1,0.1c-0.2-0.2-0.4,0.2-0.7,0.2c0-0.1,0-0.1,0-0.2
		c0,0,0,0.1-0.1,0.1c-0.1,0.1-0.2,0.1-0.2,0.2c-0.1,0-0.1,0-0.1-0.1h-0.1c-0.1,0,0,0.1,0,0.1h-0.1h0.1c0-0.1,0-0.1-0.1-0.1
		c-0.2,0.4-0.7,0.1-1,0.3c0,0,0,0,0.1,0c-0.4,0-0.7,0.2-1,0.3c0,0.1,0.1,0,0.2,0c0,0.1-0.1,0.1-0.2,0.1c-0.3,0.5-0.3,1.2-0.5,1.7
		c0.8-0.3,1.6-0.4,2.5-0.5c0,0,0,0.1,0.1,0.1c0.2-0.1,0.6,0.1,0.8,0.1c-0.1,0.1,0,0.2-0.2,0.1c0,0,0,0.1,0.1,0.1
		c-0.2,0-0.1,0.1-0.2,0.1h0.1c0,0.1-0.1,0.1-0.1,0.1c0.1,0,0,0.1,0.1,0.1c-0.1,0.1-0.1,0.3,0.1,0.4c-0.3,0.1-0.4,0.3-0.7,0.4
		c0,0.1,0.1,0,0.1,0.1c-0.4,0.1-0.6,0.3-1,0.4c0,0.1,0,0.1,0.1,0.1c-0.5,0.1-1,0.3-1.5,0.4c-0.2-0.3-0.4-0.5-0.6-0.8
		c-0.2,0.3-0.2,0.7-0.4,0.9c0,0.1,0.1,0,0.1,0.1c-0.2,0.1-0.1,0.5-0.4,0.7c0,0.1,0,0.2,0.1,0.2c-0.2,0.1-0.1,0.2-0.2,0.3
		c0.2,0.2-0.1,0.4-0.1,0.7c1.5-0.5,3-1.4,4.5-1.5c0.1,0.1,0.4,0.1,0.4,0.3c-0.1,0.1-0.3,0.1-0.3,0.2c0.1,0,0,0.1,0.1,0.1
		c0,0.1-0.1,0.1-0.2,0.1c0,0.1,0.1,0.1,0,0.1s-0.1,0-0.2,0c0.1,0.2,0,0.2-0.2,0.2c0,0.1,0,0.1,0,0.2c-0.4,0.1-0.6,0.6-1,0.6
		c0,0.3-0.5,0.3-0.6,0.6c-0.3-0.1-0.4-0.1-0.6,0.1l0,0c-0.2,0.1-0.4,0.2-0.4,0.4c-0.5,0-0.6,0.5-1.1,0.3c-0.1,0-0.1,0.1-0.1,0.2
		c-1.1,0.3-2.2-0.4-2.7-1.2c0.1-1.4,0.6-2.2,0.9-3.2c0-0.1,0,0,0.1-0.1c0-0.1,0-0.1,0-0.2c0-0.1,0.1-0.1,0.1-0.3
		c0.2-0.1,0.1-0.2,0.1-0.4c0.4-0.5,0.5-1.2,0.7-1.8c-0.1-0.1-0.3,0-0.4,0c-0.4-0.5-1-0.9-1.3-1.5c0.1-0.3,0.5-0.5,0.8-0.4
		c3.1-0.8,6.7-1.6,10-1.5c0,0,0,0,0,0.1c0.3,0,0.4,0.1,0.6,0.2c-0.1-0.1-0.2,0.2,0,0.2c0.1,0-0.1,0-0.1,0c0,0.1-0.1,0.1,0,0.1
		c0,0.1-0.1,0.1-0.2,0.1c0.1,0.1,0.1,0,0.1,0.1C210.4,6.1,210.4,6.2,210.4,6.2z M201,9C201.1,9,201.1,9,201,9
		C201.1,8.9,201,8.9,201,9z M201.1,8.8c0-0.1,0.2-0.2,0-0.2C201.1,8.7,201.1,8.7,201.1,8.8C201,8.9,201.1,8.9,201.1,8.8z M204.3,7.8
		c0-0.1,0.1-0.1,0.2-0.1C204.5,7.8,204.4,7.8,204.3,7.8z M205.5,7.3L205.5,7.3L205.5,7.3z M205.8,13.4
		C205.9,13.4,205.9,13.4,205.8,13.4L205.8,13.4z M206.6,7C206.6,7,206.7,7.1,206.6,7C206.7,7,206.7,7,206.6,7z M209.1,5.4L209.1,5.4
		L209.1,5.4z M209.4,6.5L209.4,6.5C209.4,6.4,209.4,6.4,209.4,6.5z M209.6,5.2L209.6,5.2C209.5,5.2,209.6,5.2,209.6,5.2z M209.6,6.5
		C209.7,6.5,209.7,6.5,209.6,6.5C209.7,6.5,209.6,6.5,209.6,6.5z M209.9,6.3C210,6.3,210,6.3,209.9,6.3C210,6.3,209.9,6.3,209.9,6.3
		z"/>
	<path class="st0" d="M223.8,13.8C223.8,13.8,223.9,13.8,223.8,13.8C223.8,13.7,223.8,13.7,223.8,13.8
		C223.7,13.9,223.9,13.8,223.8,13.8c-0.4,0.3-0.7,1-1.3,0.9c-0.1,0,0,0.1-0.1,0.1c-0.1-0.1-0.1,0-0.1,0c0-0.1,0,0,0,0
		c0,0.1,0.1,0.1,0.1,0.1c-0.4,0.3-1,0.8-1.4,0.7c-0.3,0.3-0.7,0.5-1.2,0.6c0,0.1-0.2,0.2-0.3,0.1c-0.1,0.2-0.6,0.1-1,0.2
		c0.1,0,0.2-0.2,0.3-0.2c0-0.1-0.1-0.1-0.2-0.1c0,0.1,0,0.1,0,0.1c-0.5,0.1-0.7-0.1-1.1-0.2V16c0,0,0,0,0.1,0c0-0.1-0.1-0.1-0.1,0
		c-0.4,0-0.5-0.5-0.9-0.5c0-0.2-0.3-0.3-0.3-0.4c0-0.2,0.1,0,0.2,0c-0.1-0.1-0.2-0.2-0.3-0.3c0-0.1,0.1,0,0.1,0
		c-0.1-0.1-0.2-0.2-0.1-0.4l0.1,0.1c0-0.2,0.2-0.3,0.2-0.5c0.2,0.1,0.1-0.1,0.2-0.2c0.1,0,0,0.1,0,0.1c0.2-0.1,0-0.6,0.3-0.6
		c0-0.1,0-0.1,0-0.1c0.1,0.1,0.1-0.1,0.2-0.1l0,0c0.1-0.2,0.2-0.3,0.3-0.4c0,0.1-0.2,0.2-0.2,0.4c-0.1,0,0,0.1,0,0
		c0.1-0.1,0.1-0.2,0.2-0.2c0,0.2-0.3,0.3-0.2,0.4l0,0l0,0c0.1,0.1,0.1-0.1,0.2-0.1c-0.1,0.1,0,0.2,0,0.3l0,0v-0.1v0.1c0,0,0,0-0.1,0
		c0,0,0,0.1,0.1,0.1c0,0,0,0,0,0.1c0-0.1,0.2-0.2,0.1-0.3c0-0.1,0.1,0.1,0.1,0c0,0,0,0,0,0.1c0,0,0,0,0,0.1v-0.1l0.1-0.1
		c0-0.1,0.1-0.1,0-0.3c0.3,0,0.2-0.2,0.4-0.2c0-0.1,0-0.1,0-0.2c0,0,0,0,0.1,0c0,0.1,0.1,0,0,0c0-0.1,0.1-0.1,0.1-0.2
		c0.1,0-0.1,0.1,0.1,0.1c0,0,0,0,0,0.1c-0.1,0-0.2,0.1-0.3,0.3c-0.1,0.1-0.1,0.1,0,0.1c0,0-0.1,0-0.1,0.1c0.1,0,0.1,0,0.1-0.1
		c0.1,0,0-0.1,0-0.1c0.1-0.1,0.2-0.1,0.3-0.3c0,0,0.1-0.1,0.1-0.2c0.1,0.1,0.1,0,0.2,0c-0.1,0-0.1,0.2-0.2,0.2c0,0,0,0.1,0,0.2l0,0
		c0-0.1,0,0,0,0V13c0,0,0,0,0.1,0c0,0.1,0,0.1,0,0.1c0,0.1,0,0.1,0,0.2c0.1,0,0.1-0.1,0.1-0.1h-0.1v-0.1c0.2,0,0.2-0.4,0.4-0.3
		c-0.2,0.1,0,0.2-0.1,0.3c0.1,0,0.1-0.1,0.2-0.1c-0.1,0.1-0.1,0.1,0,0.2c-0.2,0.1-0.3,0.3-0.4,0.5c0.1,0.1,0.1,0.1,0.1,0.3
		c-0.2-0.1-0.2,0.3-0.4,0.4c0.5,0,1-0.4,1.4-0.5c0.9-0.5,1.8-1,2.5-1.7c0-0.3,0.4-0.5,0.3-0.9c-0.5-0.3-1.1-0.5-1.6-0.8
		c-0.9-0.2-1.5-0.4-2.1-0.9c-0.4-0.1-0.5-0.4-0.8-0.6c-0.1-0.3-0.3-0.5-0.4-0.7c0-0.2,0-0.3,0-0.5c-0.1,0-0.1-0.2-0.1-0.2
		c0-0.1,0.1,0.1,0.1-0.1c0,0,0,0,0,0.1c0.1-0.2,0-0.3-0.1-0.4c0,0.1,0.1,0.2,0.1,0.3c-0.1,0-0.1-0.3-0.1-0.3
		c0.2-0.2,0.4-0.4,0.5-0.7c0.1-0.2,0.4-0.3,0.6-0.4c0.7-0.4,1.2-0.8,2-1c1-0.3,1.9-0.6,2.8-0.3c0.1,0.3,0.6,0.1,0.6,0.4
		c0,0,0,0,0.1,0c0.1,0.1,0.1,0.3,0.3,0.3c0,0.1,0,0.2,0.1,0.2c-0.1,0.2,0,0.2,0,0.4C224.4,6.3,224.2,6,224,6
		c-0.5-0.1-0.9-0.1-1.4,0.2c0,0.1,0.1,0,0.2,0c-1.1,0.4-2.6,0.8-3.3,1.7c2,0.8,5.2,1.5,5.1,4.2c-0.1,0.1,0,0.2-0.1,0.3
		c0,0.1,0.1,0.1,0.1,0.2c-0.1,0.1-0.1,0.2-0.2,0.3c0,0,0,0,0.1,0C224,13.6,224,13.7,223.8,13.8z M216.7,13.7c0-0.1,0-0.2,0.1-0.2
		C216.7,13.6,216.7,13.7,216.7,13.7z M216.8,13.4C216.8,13.4,216.8,13.5,216.8,13.4C216.7,13.4,216.7,13.4,216.8,13.4z M216.9,13.8
		c-0.1,0,0-0.1,0-0.2C217,13.5,216.9,13.7,216.9,13.8z M217,13.5c-0.1,0,0-0.2,0.1-0.1C217,13.4,217,13.5,217,13.5z M217.1,13.4
		c0-0.1,0.1-0.1,0.1-0.2L217.1,13.4z M217.2,13.7L217.2,13.7C217.2,13.8,217.2,13.7,217.2,13.7c0.1,0,0.2-0.1,0.1-0.1
		C217.3,13.6,217.2,13.6,217.2,13.7L217.2,13.7z M217.3,13.8C217.2,13.8,217.2,13.8,217.3,13.8C217.2,13.9,217.3,13.9,217.3,13.8z
		 M217.5,13C217.5,13,217.5,12.9,217.5,13C217.6,12.9,217.6,13,217.5,13z M217.6,13.4c0-0.1,0-0.2,0.2-0.3
		C217.7,13.2,217.6,13.3,217.6,13.4z M217.6,13.5c0-0.1,0.1-0.1,0.1-0.1S217.6,13.6,217.6,13.5z M217.6,7.5
		c-0.1-0.1,0.1-0.2,0.1-0.3C217.8,7.4,217.6,7.4,217.6,7.5z M217.8,13.4C217.8,13.4,217.7,13.4,217.8,13.4c-0.1-0.1,0-0.1,0-0.1
		C217.8,13.3,217.7,13.3,217.8,13.4z M217.8,13.8C217.7,14,218,13.7,217.8,13.8L217.8,13.8z M218.3,6.9L218.3,6.9
		C218.2,7,218.2,7,218.3,6.9C218.3,7,218.3,6.9,218.3,6.9z M218.3,13.4C218.3,13.4,218.4,13.4,218.3,13.4
		C218.3,13.4,218.3,13.3,218.3,13.4L218.3,13.4C218.2,13.4,218.3,13.4,218.3,13.4z M218.5,12.9C218.5,12.9,218.5,13,218.5,12.9
		L218.5,12.9z M218.8,12.5c0.1,0,0,0.2-0.1,0.2C218.7,12.6,218.8,12.6,218.8,12.5z M218.7,13.3C218.8,13.2,218.8,13.3,218.7,13.3
		C218.8,13.2,218.7,13.2,218.7,13.3z M218.7,13.5C218.8,13.5,218.8,13.4,218.7,13.5C218.8,13.4,218.8,13.4,218.7,13.5
		C218.7,13.4,218.7,13.5,218.7,13.5z M218.9,12.8C218.9,12.9,218.9,12.8,218.9,12.8C218.8,12.8,218.9,12.8,218.9,12.8z M218.9,16.3
		C219,16.3,218.9,16.2,218.9,16.3C218.9,16.3,218.9,16.4,218.9,16.3z M218.9,13.2C218.9,13.1,219,13.1,218.9,13.2
		C219.1,13.1,219,13.2,218.9,13.2z M219.1,12.4c-0.1-0.1,0.1-0.1,0.1-0.1C219.2,12.4,219.1,12.4,219.1,12.4z M219.1,12.6
		C219,12.5,219.1,12.4,219.1,12.6C219.2,12.5,219.1,12.5,219.1,12.6z M219.4,16.3c0,0.1-0.1-0.1-0.1,0s0,0.1,0,0.1
		C219.4,16.4,219.4,16.3,219.4,16.3z M219.5,6.2L219.5,6.2L219.5,6.2z M220.6,5.8C220.6,5.7,220.6,5.7,220.6,5.8
		C220.6,5.7,220.6,5.7,220.6,5.8C220.5,5.7,220.5,5.7,220.6,5.8L220.6,5.8z M220.6,6C220.6,6,220.6,5.9,220.6,6
		C220.6,5.9,220.6,5.9,220.6,6C220.5,5.9,220.5,6,220.6,6L220.6,6z M220.7,5.9C220.7,5.8,220.8,5.9,220.7,5.9
		C220.7,5.8,220.7,5.8,220.7,5.9z M221,5.8c-0.1-0.1-0.2,0-0.1,0.1C220.9,5.9,221,5.9,221,5.8z M221,15.7
		C221,15.7,221,15.6,221,15.7L221,15.7z M221.1,5.8C221.1,5.8,221.1,5.7,221.1,5.8C221.1,5.7,221.1,5.7,221.1,5.8
		C221.1,5.7,221.1,5.8,221.1,5.8L221.1,5.8z M221.3,5.7C221.3,5.7,221.2,5.7,221.3,5.7C221.3,5.8,221.4,5.7,221.3,5.7z M221.4,15.5
		L221.4,15.5L221.4,15.5z M221.6,5.7C221.6,5.6,221.6,5.6,221.6,5.7c0,0-0.2-0.1-0.2,0C221.5,5.7,221.5,5.7,221.6,5.7z M221.6,5.6
		C221.7,5.6,221.7,5.6,221.6,5.6C221.7,5.6,221.6,5.6,221.6,5.6z M221.7,5.6L221.7,5.6C221.7,5.7,221.6,5.7,221.7,5.6
		C221.7,5.7,221.7,5.7,221.7,5.6z M222,15.1c-0.1,0-0.2,0.1-0.2,0.2C221.9,15.2,222,15.2,222,15.1z M222.1,15.1
		C222.2,15.1,222.1,15,222.1,15.1C222,15.1,222.1,15.2,222.1,15.1z M222.6,5.6c0-0.2-0.2-0.1-0.3,0C222.4,5.6,222.5,5.5,222.6,5.6z
		 M222.4,5.3C222.4,5.3,222.3,5.3,222.4,5.3L222.4,5.3z"/>
	<path class="st0" d="M257.6,6.4c0,0.1,0.1,0,0.1-0.1h0.1c0,0.2-0.2,0.2-0.2,0.4c-0.1,0-0.2,0.1-0.2,0.2s0.1,0,0.1,0
		c0.1,0.3-0.3,0.3-0.3,0.6c0.1-0.1,0.1-0.1,0.1-0.2c0,0.1,0,0.5-0.2,0.5c0-0.1,0.1-0.2,0.1-0.2c-0.2,0-0.1,0.4-0.3,0.4
		c0.1,0.1,0.1,0.3-0.1,0.3c0,0.1,0.1,0,0.1,0.1c-0.1,0.2-0.3,0.2-0.4,0.3c0,0,0,0.1,0,0.2c-0.1,0.1-0.2,0.2-0.3,0.4
		c-0.4,0.3-0.6,0.8-1,1.1c0,0,0,0,0-0.1c-0.1,0-0.1,0.1-0.1,0.2c0,0-0.1-0.1-0.1,0l0,0v-0.1c-0.1,0-0.1,0.2,0,0.1c0,0,0,0,0,0.1
		c-0.1,0,0,0,0,0s0,0,0-0.1c0.1,0.1,0.1,0.3-0.1,0.4l0,0l0,0c-0.2,0.1,0,0.1-0.1,0.3c-0.1-0.1,0,0-0.1,0v-0.1
		c-0.1,0-0.1,0.1-0.2,0.1l0,0c0,0.2-0.1,0.2-0.1,0.4c-0.1,0-0.1,0-0.1,0c0,0.2,0,0.2,0,0.3c-0.1,0-0.1,0-0.1,0.1s0.1,0,0.1-0.1
		c0.1,0.1,0,0.2-0.1,0.3c-0.2,0-0.3,0.2-0.3,0.3c0,0-0.1,0-0.1,0.1s0.1,0,0.1-0.1c0.1,0.2-0.3,0.4-0.3,0.7c-0.1,0-0.2-0.1-0.2,0.1
		c-0.1,0-0.1,0.1,0,0.1c-0.2,0.5-0.5,0.9-0.8,1.3c-0.3,0.7-0.8,1.2-1,1.9c0,0-0.1-0.1-0.1,0c-0.2,0.3-0.3,0.8,0,1
		c0,0-0.2,0.1-0.1,0.2c0,0.1-0.3-0.2-0.3,0.1c-0.4,0-0.7-0.3-1-0.4c-0.2-0.1-0.4-0.2-0.5-0.5c-0.1,0-0.1-0.1-0.2-0.1
		c0-1.4,1-2.2,1.6-3.2c0,0.1,0,0,0,0c0.7-1,1.3-2.1,2-3.1c-1.6-0.2-1.9-1.7-2.4-3c0-0.7-0.4-1-0.4-1.7c0.1-0.1,0.2-0.2,0.3-0.3
		c0.4,0.1,0.8-0.1,1,0.2c0.1,0,0.1,0,0.1-0.1c0.3,0.3,0.7,0.6,0.8,1.1h-0.1c0.1,0.2,0,0.5,0.2,0.6c0.1,0.7,0.3,1.6,0.9,2
		c0.3,0,0.4-0.2,0.6-0.3c0.7-1.3,1.6-2.4,2.3-3.8c0.2,0,0.3,0.1,0.4,0c0.1,0,0.1,0.1,0.1,0.1c0.2-0.1,0.2-0.2,0.4-0.1
		c0,0-0.1,0-0.1,0.1s0.2-0.1,0.2,0.1c-0.2-0.1,0.1,0.1-0.1,0.2c0.1,0,0.1-0.1,0.2-0.1c0,0.1,0,0.1-0.1,0.1c0.1,0,0.3-0.1,0.3,0.1
		c-0.1,0-0.1,0-0.2,0c0.1,0.1,0.2,0,0.3,0c0,0.2-0.1,0.3,0.1,0.3c-0.1,0.1-0.1,0.2-0.3,0.2c0,0,0,0,0,0.1
		C257.7,6.3,257.6,6.3,257.6,6.4z M250.1,17C250,17,250,17,250.1,17C250.1,17.1,250.1,17,250.1,17z M251.5,13.8L251.5,13.8
		C251.6,13.9,251.6,13.8,251.5,13.8z M251.7,16.1C251.7,16.1,251.6,16.1,251.7,16.1C251.7,16.2,251.7,16.1,251.7,16.1z M253.5,12.8
		L253.5,12.8C253.4,12.9,253.5,12.9,253.5,12.8z M254.3,10.7c0.1,0,0.1-0.1,0.1,0C254.4,10.5,254.3,10.6,254.3,10.7
		C254.2,10.7,254.3,10.7,254.3,10.7z M254.4,10.7L254.4,10.7c-0.1,0.1-0.1,0.1-0.1,0.2c-0.1,0,0,0,0,0
		C254.4,10.8,254.4,10.8,254.4,10.7C254.5,10.7,254.5,10.6,254.4,10.7c0.1,0,0.1-0.2,0.1-0.2S254.5,10.6,254.4,10.7
		C254.4,10.6,254.4,10.6,254.4,10.7z M254.5,10.8c0-0.1,0.1-0.1,0.1-0.2l0,0C254.5,10.6,254.4,10.8,254.5,10.8z M254.5,10.9
		L254.5,10.9L254.5,10.9z M254.7,10.2c0,0,0,0.1-0.1,0.1l0,0c-0.1,0,0,0,0,0l0,0c0,0.1-0.1,0.1,0,0.1
		C254.7,10.4,254.7,10.3,254.7,10.2c0.1,0,0.1,0,0.1,0s0,0,0-0.1C254.7,10.2,254.7,10.1,254.7,10.2L254.7,10.2L254.7,10.2z
		 M254.7,11L254.7,11c0.1,0.1,0,0.1,0,0.1C254.7,11,254.7,11,254.7,11z M255.2,10.5v-0.1C255.3,10.3,255.3,10.5,255.2,10.5z
		 M256.5,8.4C256.4,8.4,256.3,8.5,256.5,8.4C256.4,8.5,256.5,8.5,256.5,8.4z M256.6,8.3C256.6,8.3,256.6,8.2,256.6,8.3
		C256.6,8.2,256.6,8.2,256.6,8.3C256.6,8.2,256.6,8.2,256.6,8.3L256.6,8.3z M257.3,5.4L257.3,5.4L257.3,5.4z M257.5,5.7
		C257.7,5.8,257.5,5.6,257.5,5.7S257.5,5.8,257.5,5.7z"/>
	<path class="st0" d="M273,7.4c0,0.1,0,0.1-0.1,0.2c-0.1-0.4-0.3-0.7-0.5-1.1c-0.4-0.2-0.5-0.6-1-0.7c0-0.1-0.2-0.2-0.1-0.3
		c-0.1-0.1,0,0.1-0.1,0.1c-0.2-0.1-0.4-0.4-0.6-0.4c0,0.1,0.2,0.1,0.1,0.2h-0.1v0.1c0,0,0,0,0-0.1c-0.3-0.1-0.5,0.3-0.8,0.1v0.1
		c-0.1-0.1-0.2-0.1-0.2,0c0,0,0.1,0,0.1,0.1c-0.3,0.1-0.5,0.2-0.7,0.4c0,0,0,0,0,0.1c0.1,0,0.1,0.1,0,0.2c0.1,0,0.1,0.1,0.1,0.2
		c-0.1,0-0.2,0.1-0.2,0.1c0-0.1,0-0.1,0-0.1s0-0.1-0.1-0.1c-0.1,0.1,0,0.3-0.2,0.4c-0.1-0.1-0.1,0-0.2,0c0,0.1,0.1,0,0.1,0.1
		c0.1,0,0.1-0.2,0.3-0.1c0.2-0.1,0.4-0.3,0.6-0.3c0,0.1-0.2,0-0.3,0.1c0,0,0.1,0,0.1,0.1c0,0,0.1-0.1,0.1,0s-0.2,0.1-0.1,0.2
		c0.2-0.1,0.2-0.2,0.5-0.2h0.1c0,0.1,0,0-0.1,0c0,0,0,0.1-0.1,0.1c0,0,0,0,0,0.1c0.1,0,0.2-0.1,0.3-0.2c-0.1-0.1-0.2-0.2-0.3-0.2
		l0,0c0-0.1,0.1-0.2,0.2-0.2c0,0,0,0,0,0.1s-0.1,0.2,0,0.2c0,0,0.1,0,0.1-0.1l0,0v0.1c0.1,0,0.2-0.1,0.3-0.1l0,0l0,0
		c0.1,0.1-0.1,0-0.1,0.1c0.1,0,0.1,0.1,0.2,0.1c1.1-0.6,1,1.2,1.1,1.6c-0.1,0.3,0.1,0.5-0.1,0.6v0.1c0.1,0.2-0.1,0.3-0.1,0.5v0.1
		c-0.1,0.2-0.1,0.5-0.2,0.7c0,0.4-0.2,0.6-0.2,0.9c-0.3,0.5-0.5,1.1-0.9,1.6c-0.5,0.7-1.1,1.5-2.1,1.7c-0.3-0.1-0.2-0.4-0.4-0.6
		c0.1-0.1,0,0,0-0.1c0.1,0,0,0.1,0.1,0.1c0-0.3,0.1-0.8-0.3-0.7c0.1-0.1,0-0.2,0-0.4c0.1,0,0-0.1,0.1-0.1c0,0,0,0.1,0.1,0.1
		c0.2-0.2,0.1-0.4,0.1-0.6l0,0v0.1c0-0.1,0.1-0.2,0-0.2c0,0.1,0,0.1-0.1,0.1c0.1-0.1,0.1-0.2,0-0.4c0,0,0,0,0.1,0
		c-0.1-0.3,0.2-0.3,0.3-0.5v-0.1c0,0,0,0-0.1,0c0,0,0,0.1,0,0l0,0c0-0.1,0.1-0.2,0.1-0.4h-0.1c0.1,0,0.1-0.1,0.1-0.2
		c0.1,0,0.1-0.1,0.1-0.1c0-0.5,0.4-0.6,0.5-1.1c0.3-0.3,0.5-0.8,1-0.9c0.1,0,0.1,0.1,0.2,0.1c0.1-0.1,0.1-0.1,0.3-0.1
		c0-0.1,0-0.2,0-0.3c-0.4-0.4-0.9-0.7-1.3-1c-0.2,0.1-0.6,0.3-0.8,0.5c0.1,0,0.1,0,0.1,0.1c-0.1,0-0.1,0.1-0.2,0.1c0,0,0,0-0.1,0
		c-0.8,1-1.4,2.2-1.9,3.4c0,0.7-0.4,1.2-0.3,1.9c0.1,0,0.1,0.4,0.1,0.4c-0.1,0-0.1-0.3-0.2-0.3c0.1,0.3,0.1,0.6,0.3,0.8
		c0.1,0.4,0.4,0.6,0.8,0.9c0.1,0.1,0.2,0.3,0.4,0.4c0.1,0.1,0.2,0,0.3,0.1c0,0,0,0.1,0.1,0.2c0.4,0.3,1,0.2,1.4,0.4
		c0.2-0.1,0.7-0.2,1-0.2c0.7-0.3,1.1-0.7,1.5-1.3c0,0,0.1,0,0.1-0.1c-0.1,0-0.2,0-0.3,0c0.1-0.1,0-0.2,0.2-0.2c0,0,0,0.1,0,0.2
		c0.1,0,0.2,0,0.3-0.1c0,0-0.1,0-0.1-0.1c0.1,0.1,0.1-0.1,0.2-0.1c0-0.3,0.3-0.4,0.3-0.8c0.5-0.4,0.6-1,0.9-1.5
		c-0.1,0,0-0.1-0.1-0.2c0.2-0.1,0.3-0.6,0.2-0.7c0.3-0.8,0.2-1.7,0.2-2.5h-0.1C273.3,8.1,273.2,7.6,273,7.4z M265.9,14
		C265.8,14,266,13.8,265.9,14c0.1,0,0.1,0.1,0.1,0.1L265.9,14z M267.7,12C267.7,12.1,267.7,12.1,267.7,12L267.7,12z M268,8
		C268,8,268,8.1,268,8L268,8z M268,11.6c0,0.1-0.1,0.1,0,0.2C268,11.7,268.2,11.5,268,11.6z M268,8L268,8C268.1,8,268,8,268,8z
		 M268.2,6.9C268.1,6.9,268.1,6.8,268.2,6.9C268.1,6.9,268.2,7,268.2,6.9z M268.1,7.9L268.1,7.9L268.1,7.9z M268.1,11.5L268.1,11.5
		C268.1,11.5,268.1,11.4,268.1,11.5z M268.2,6.8L268.2,6.8C268.2,6.9,268.2,6.9,268.2,6.8z M268.3,6.5
		C268.3,6.6,268.2,6.6,268.3,6.5C268.3,6.6,268.3,6.6,268.3,6.5L268.3,6.5z M268.2,6.8C268.3,6.8,268.3,6.8,268.2,6.8
		C268.3,6.8,268.2,6.8,268.2,6.8z M268.3,6.8L268.3,6.8C268.4,6.8,268.4,6.7,268.3,6.8C268.3,6.7,268.3,6.8,268.3,6.8z M268.4,6.5
		C268.5,6.5,268.5,6.5,268.4,6.5C268.5,6.4,268.4,6.4,268.4,6.5z M268.9,6.2C268.8,6.2,268.8,6.2,268.9,6.2
		C268.8,6.2,268.8,6.2,268.9,6.2C268.8,6.3,268.8,6.3,268.9,6.2L268.9,6.2c-0.2,0.1-0.1,0.3-0.3,0.2c0,0.1-0.2,0.2-0.1,0.2
		C268.5,6.5,268.9,6.4,268.9,6.2z M268.6,6.4C268.6,6.3,268.5,6.3,268.6,6.4L268.6,6.4z M268.9,6.5C268.9,6.5,268.8,6.5,268.9,6.5
		L268.9,6.5z M269,5.9C269,5.9,269.1,6,269,5.9C269.1,5.9,269,5.9,269,5.9z M269.3,7C269.3,7.1,269.2,7.1,269.3,7
		C269.3,7.1,269.3,7.1,269.3,7L269.3,7z M269.3,6.4c-0.1-0.2,0.3,0,0.2-0.2c0.1,0,0.1,0,0.1,0C269.5,6.4,269.4,6.3,269.3,6.4z
		 M269.3,6.8C269.2,6.7,269.4,6.7,269.3,6.8C269.4,6.7,269.3,6.7,269.3,6.8z M269.6,6.9c-0.1,0-0.3,0-0.3,0.2
		C269.5,7,269.5,6.9,269.6,6.9z M269.4,6.6C269.4,6.5,269.5,6.5,269.4,6.6C269.5,6.5,269.5,6.5,269.4,6.6
		C269.5,6.6,269.5,6.6,269.4,6.6z M269.7,7c-0.1-0.1-0.1,0-0.2,0.1C269.6,7,269.7,7,269.7,7z M269.6,6.5
		C269.6,6.5,269.7,6.5,269.6,6.5L269.6,6.5z M269.7,6.2C269.6,6.2,269.7,6.2,269.7,6.2L269.7,6.2z M269.8,6.9L269.8,6.9L269.8,6.9z
		 M270.1,6.7c0,0.1-0.3,0.1-0.2,0.2C270,6.9,270,6.9,270.1,6.7C269.9,6.8,270.2,6.7,270.1,6.7z M270.3,5.3L270.3,5.3L270.3,5.3z
		 M270.8,15L270.8,15C270.9,15,270.9,15.1,270.8,15z M271,14.9C271.1,14.8,270.8,15,271,14.9L271,14.9z M271.8,14
		c-0.1,0,0-0.1,0.1-0.1C271.9,13.9,271.8,13.9,271.8,14z M272,13.6C272,13.5,272.1,13.6,272,13.6C272,13.6,271.9,13.6,272,13.6z
		 M272.4,12.8c-0.1,0,0-0.1,0-0.2C272.5,12.6,272.4,12.7,272.4,12.8z M272.5,12.4C272.4,12.4,272.5,12.3,272.5,12.4L272.5,12.4z
		 M272.6,12.1L272.6,12.1L272.6,12.1z M272.8,12L272.8,12C272.8,12,272.7,12,272.8,12z M272.8,7.1c0,0.1,0.1,0.1,0.1,0.2
		C272.9,7.2,272.8,7,272.8,7.1z M272.9,10.8C273,10.8,273,10.8,272.9,10.8c0.1,0,0.1,0,0.1,0.1c-0.1,0.1-0.1,0.1,0,0.3
		c-0.1-0.1-0.1,0-0.2,0C272.9,11,273.1,10.9,272.9,10.8z M273,8.2C273,8.2,273,8.1,273,8.2C273.1,8.1,273.1,8.1,273,8.2
		c0.1,0,0.1,0,0.1,0c-0.1,0.1,0.1,0.2,0,0.3C273.1,8.4,273.1,8.3,273,8.2z M273,10.2c0-0.2,0-0.5,0.2-0.4c-0.1,0.1-0.1,0.3-0.1,0.4
		C273.1,10.2,273.1,10.2,273,10.2z M273.2,9.2c-0.1,0.2,0.1,0.3,0,0.4c-0.1,0,0-0.2-0.1-0.1c0-0.2-0.1-0.5,0-0.7
		c0.1,0,0,0.2,0.1,0.1C273.2,9.1,273.3,9.1,273.2,9.2C273.2,9.2,273.2,9.3,273.2,9.2z M273.2,8.6C273.1,8.6,273.1,8.5,273.2,8.6
		C273.2,8.5,273.2,8.5,273.2,8.6z"/>
	<path class="st0" d="M289.8,8.2C289.8,8.2,289.8,8.3,289.8,8.2c-0.1,0-0.1,0.1-0.2,0.1c0-0.2,0.1-0.1,0.1-0.4h0.1
		c0-0.3-0.2-0.2-0.1-0.5c0.1,0.1,0.1,0.2,0.1,0.3c0.1-0.1,0-0.4,0-0.5c0.2-0.1,0.2,0.2,0.3,0.3l0.1-0.1c0-0.1-0.1-0.1-0.2-0.3
		c0,0,0.1,0,0.1-0.1S290,7,290,6.8c0.1,0,0.2,0.3,0.3,0.4c0-0.1,0.1-0.3,0.1-0.3c0.2,0,0.1,0.5,0.2,0.5c0,0.1,0,0.1,0,0.2
		c0.1,0.1,0.1,0.3,0.2,0.4c0,0.1-0.1,0.1-0.1,0.1s0.1,0.1,0.2,0.1c-0.1,0.5,0.2,1-0.2,1.5h0.1c0,0.9-0.4,1.6-0.5,2.4
		c-0.2,0.4-0.4,0.7-0.5,1.1c-0.4,0.6-0.7,1.2-1.3,1.6c0,0.1-0.1,0.1-0.1,0.2h-0.1c-0.1,0.5-1,0.4-1.1,0.8h-0.1
		c-0.4,0.3-1.2,0.3-1.7,0.1c-0.2,0-0.3,0-0.5,0c0-0.1-0.1,0-0.1-0.1c-0.1,0-0.1,0.1-0.2,0c-0.7-0.3-1-1-1.3-1.7
		c-0.8-1.9-0.3-4.3,0.3-6.1c0-0.5,0.3-0.7,0.3-1.2c0.2-0.2,0.2-0.5,0.5-0.4c0.1,0,0.1,0.1,0.1,0.2c0.1-0.1,0.2-0.1,0.3-0.1
		c0.1,0.3,0.5,0.3,0.6,0.5c0,0.3,0,0.3,0.1,0.4c-0.1,0.8-0.3,1.8-0.5,2.6c-0.1,0.6-0.1,1.3-0.1,1.9c0.1,0.8,0.2,1.5,0.7,2.1
		c0,0,0,0,0,0.1c0.1,0.1,0.3,0.3,0.4,0.4c0.6-0.2,0.9-0.7,1.4-1c0.6-1,1.1-1.8,1.5-2.9c-0.1-0.3,0.1-0.5,0.2-0.7
		c0-0.1-0.1,0-0.1-0.1c0.2,0,0.1-0.3,0.2-0.3c0-0.1-0.1-0.1-0.1-0.2c0.1,0.1,0.2,0,0.2,0.1c0.1-0.1,0.2-0.2,0.2-0.4
		c-0.1,0-0.2,0.2-0.1,0.2c0,0.1-0.2,0-0.2,0c0-0.1,0-0.2,0.1-0.1c0-0.1-0.2-0.1-0.1-0.2c0.1,0,0,0.1,0.1,0.1s0.1-0.1,0.1-0.2
		c0-0.1-0.1,0.1-0.2,0c0.2-0.1,0.1-0.3,0.3-0.4c0,0.1-0.1,0.2,0,0.3C289.8,8.7,289.8,8.4,289.8,8.2C289.9,8.4,289.9,8.2,289.8,8.2z
		 M285.1,12.6C285,12.6,285,12.6,285.1,12.6C285.1,12.7,285.1,12.6,285.1,12.6z M288.7,12.1C288.7,12.1,288.8,12.2,288.7,12.1
		L288.7,12.1z M289.5,9.7C289.5,9.6,289.5,9.6,289.5,9.7C289.4,9.7,289.5,9.8,289.5,9.7z M289.6,10.2
		C289.5,10.2,289.5,10.2,289.6,10.2C289.6,10.3,289.6,10.2,289.6,10.2z M289.6,10.4C289.6,10.3,289.6,10.3,289.6,10.4
		C289.5,10.3,289.5,10.3,289.6,10.4C289.5,10.3,289.5,10.3,289.6,10.4C289.5,10.4,289.5,10.4,289.6,10.4z M289.6,8
		c-0.1,0,0-0.2,0-0.2C289.7,7.8,289.6,7.9,289.6,8z M289.6,9.5c-0.1,0.1,0,0.2-0.1,0.3C289.6,9.7,289.8,9.5,289.6,9.5z M289.6,9.8
		C289.6,9.8,289.6,9.9,289.6,9.8L289.6,9.8z M289.7,8.5c-0.1,0,0-0.1,0-0.2C289.7,8.4,289.7,8.5,289.7,8.5z M290.1,12.6
		c0-0.1,0.1-0.2,0-0.2c0.1,0.1-0.1,0-0.1,0.1C290.1,12.5,290,12.6,290.1,12.6z M290.1,12.7C290,12.7,290.2,12.7,290.1,12.7
		C290.1,12.6,290.1,12.7,290.1,12.7z M290.4,7L290.4,7C290.3,7.1,290.3,7.1,290.4,7C290.3,7,290.3,7,290.4,7
		C290.3,7,290.3,7,290.4,7z M290.7,10.3C290.8,10.4,290.8,10.2,290.7,10.3C290.8,10.2,290.8,10.2,290.7,10.3L290.7,10.3z M290.8,8.6
		c0,0.1,0,0.2,0.1,0.2C290.9,8.7,290.9,8.7,290.8,8.6z M290.9,9.3C290.9,9.3,290.8,9.3,290.9,9.3C290.9,9.4,290.9,9.3,290.9,9.3z"/>
</g>
</svg>
